<?xml version="1.0" encoding="utf-8"?>
<!-- Generator: Adobe Illustrator 18.0.0, SVG Export Plug-In . SVG Version: 6.00 Build 0)  -->
<!DOCTYPE svg PUBLIC "-//W3C//DTD SVG 1.1//EN" "http://www.w3.org/Graphics/SVG/1.1/DTD/svg11.dtd">
<svg version="1.1" xmlns="http://www.w3.org/2000/svg" xmlns:xlink="http://www.w3.org/1999/xlink" x="0px" y="0px"
	 viewBox="0 0 2272 1872" enable-background="new 0 0 2272 1872" xml:space="preserve" preserveAspectRatio="none">
<g id="Background" >
	<rect fill="#D7F0FC" width="2272" height="1872"/>
	<g>
		<rect x="1817.8" y="609" fill="#CB804C" width="105.2" height="369.1"/>
		<path fill="#A6D062" d="M1968.2,823.8h-195.7c-72.9,0-132.5-59.6-132.5-132.5V495.6c0-72.9,59.6-132.5,132.5-132.5h195.7
			c72.9,0,132.5,59.6,132.5,132.5v195.7C2100.7,764.2,2041.1,823.8,1968.2,823.8z"/>
		<path fill="#84B24C" d="M1786.1,759.5h-70c-9.7,0-9.7,15,0,15h70C1795.7,774.5,1795.7,759.5,1786.1,759.5z"/>
		<path fill="#84B24C" d="M1902.1,717.5h-70c-9.7,0-9.7,15,0,15h70C1911.7,732.5,1911.7,717.5,1902.1,717.5z"/>
		<path fill="#84B24C" d="M1786.1,633.5h-48c-9.7,0-9.7,15,0,15h48C1795.7,648.5,1795.7,633.5,1786.1,633.5z"/>
		<path fill="#84B24C" d="M2034.1,629.5h-52c-9.7,0-9.7,15,0,15h52C2043.7,644.5,2043.7,629.5,2034.1,629.5z"/>
		<path fill="#84B24C" d="M1898.1,591.5h-30c-9.7,0-9.7,15,0,15h30C1907.7,606.5,1907.7,591.5,1898.1,591.5z"/>
		<path fill="#84B24C" d="M1734.1,543.5h-44c-9.7,0-9.7,15,0,15h44C1743.7,558.5,1743.7,543.5,1734.1,543.5z"/>
		<path fill="#84B24C" d="M2030.1,531.5h-32c-9.7,0-9.7,15,0,15h32C2039.7,546.5,2039.7,531.5,2030.1,531.5z"/>
		<path fill="#84B24C" d="M1834.1,511.5h-32c-9.7,0-9.7,15,0,15h32C1843.7,526.5,1843.7,511.5,1834.1,511.5z"/>
		<path fill="#84B24C" d="M1970.1,465.5h-34c-9.7,0-9.7,15,0,15h34C1979.7,480.5,1979.7,465.5,1970.1,465.5z"/>
		<path fill="#84B24C" d="M1776.1,425.5h-36c-9.7,0-9.7,15,0,15h36C1785.7,440.5,1785.7,425.5,1776.1,425.5z"/>
		<path fill="#84B24C" d="M1996.1,749.5h-40c-9.7,0-9.7,15,0,15h40C2005.7,764.5,2005.7,749.5,1996.1,749.5z"/>
		<path fill="#84B24C" d="M1936.1,401.5h-28c-9.7,0-9.7,15,0,15h28C1945.7,416.5,1945.7,401.5,1936.1,401.5z"/>
	</g>
	<g>
		<rect x="1085.6" y="609" fill="#CB804C" width="105.2" height="369.1"/>
		<path fill="#A6D062" d="M1236,823.8h-195.7c-72.9,0-132.5-59.6-132.5-132.5V495.6c0-72.9,59.6-132.5,132.5-132.5H1236
			c72.9,0,132.5,59.6,132.5,132.5v195.7C1368.5,764.2,1308.9,823.8,1236,823.8z"/>
		<path fill="#84B24C" d="M1053.9,759.5h-70c-9.7,0-9.7,15,0,15h70C1063.5,774.5,1063.5,759.5,1053.9,759.5z"/>
		<path fill="#84B24C" d="M1169.9,717.5h-70c-9.7,0-9.7,15,0,15h70C1179.5,732.5,1179.5,717.5,1169.9,717.5z"/>
		<path fill="#84B24C" d="M1053.9,633.5h-48c-9.7,0-9.7,15,0,15h48C1063.5,648.5,1063.5,633.5,1053.9,633.5z"/>
		<path fill="#84B24C" d="M1301.9,629.5h-52c-9.7,0-9.7,15,0,15h52C1311.5,644.5,1311.5,629.5,1301.9,629.5z"/>
		<path fill="#84B24C" d="M1165.9,591.5h-30c-9.7,0-9.7,15,0,15h30C1175.5,606.5,1175.5,591.5,1165.9,591.5z"/>
		<path fill="#84B24C" d="M1001.9,543.5h-44c-9.7,0-9.7,15,0,15h44C1011.5,558.5,1011.5,543.5,1001.9,543.5z"/>
		<path fill="#84B24C" d="M1297.9,531.5h-32c-9.7,0-9.7,15,0,15h32C1307.5,546.5,1307.5,531.5,1297.9,531.5z"/>
		<path fill="#84B24C" d="M1101.9,511.5h-32c-9.7,0-9.7,15,0,15h32C1111.5,526.5,1111.5,511.5,1101.9,511.5z"/>
		<path fill="#84B24C" d="M1237.9,465.5h-34c-9.7,0-9.7,15,0,15h34C1247.5,480.5,1247.5,465.5,1237.9,465.5z"/>
		<path fill="#84B24C" d="M1043.9,425.5h-36c-9.7,0-9.7,15,0,15h36C1053.5,440.5,1053.5,425.5,1043.9,425.5z"/>
		<path fill="#84B24C" d="M1263.9,749.5h-40c-9.7,0-9.7,15,0,15h40C1273.5,764.5,1273.5,749.5,1263.9,749.5z"/>
		<path fill="#84B24C" d="M1203.9,401.5h-28c-9.7,0-9.7,15,0,15h28C1213.5,416.5,1213.5,401.5,1203.9,401.5z"/>
	</g>
	<g>
		<rect x="255.3" y="609" fill="#CB804C" width="105.2" height="369.1"/>
		<path fill="#A6D062" d="M405.8,823.8H210.1c-72.9,0-132.5-59.6-132.5-132.5V495.6c0-72.9,59.6-132.5,132.5-132.5h195.7
			c72.9,0,132.5,59.6,132.5,132.5v195.7C538.3,764.2,478.7,823.8,405.8,823.8z"/>
		<path fill="#84B24C" d="M223.6,759.5h-70c-9.7,0-9.7,15,0,15h70C233.3,774.5,233.3,759.5,223.6,759.5z"/>
		<path fill="#84B24C" d="M339.6,717.5h-70c-9.7,0-9.7,15,0,15h70C349.3,732.5,349.3,717.5,339.6,717.5z"/>
		<path fill="#84B24C" d="M223.6,633.5h-48c-9.7,0-9.7,15,0,15h48C233.3,648.5,233.3,633.5,223.6,633.5z"/>
		<path fill="#84B24C" d="M471.6,629.5h-52c-9.7,0-9.7,15,0,15h52C481.3,644.5,481.3,629.5,471.6,629.5z"/>
		<path fill="#84B24C" d="M335.6,591.5h-30c-9.7,0-9.7,15,0,15h30C345.3,606.5,345.3,591.5,335.6,591.5z"/>
		<path fill="#84B24C" d="M171.6,543.5h-44c-9.7,0-9.7,15,0,15h44C181.3,558.5,181.3,543.5,171.6,543.5z"/>
		<path fill="#84B24C" d="M467.6,531.5h-32c-9.7,0-9.7,15,0,15h32C477.3,546.5,477.3,531.5,467.6,531.5z"/>
		<path fill="#84B24C" d="M271.6,511.5h-32c-9.7,0-9.7,15,0,15h32C281.3,526.5,281.3,511.5,271.6,511.5z"/>
		<path fill="#84B24C" d="M407.6,465.5h-34c-9.7,0-9.7,15,0,15h34C417.3,480.5,417.3,465.5,407.6,465.5z"/>
		<path fill="#84B24C" d="M213.6,425.5h-36c-9.7,0-9.7,15,0,15h36C223.3,440.5,223.3,425.5,213.6,425.5z"/>
		<path fill="#84B24C" d="M433.6,749.5h-40c-9.7,0-9.7,15,0,15h40C443.3,764.5,443.3,749.5,433.6,749.5z"/>
		<path fill="#84B24C" d="M373.6,401.5h-28c-9.7,0-9.7,15,0,15h28C383.3,416.5,383.3,401.5,373.6,401.5z"/>
	</g>
	<path fill="#EFF9FE" d="M417.8,121.8H191.9c-16.6,0-30-13.4-30-30v0c0-16.6,13.4-30,30-30h225.9c16.6,0,30,13.4,30,30v0
		C447.8,108.3,434.4,121.8,417.8,121.8z"/>
	<path fill="#EFF9FE" d="M1310.9,136.8H1085c-16.6,0-30-13.4-30-30v0c0-16.6,13.4-30,30-30h225.9c16.6,0,30,13.4,30,30v0
		C1340.9,123.3,1327.5,136.8,1310.9,136.8z"/>
	<path fill="#EFF9FE" d="M1617,318.3h-225.9c-16.6,0-30-13.4-30-30v0c0-16.6,13.4-30,30-30H1617c16.6,0,30,13.4,30,30v0
		C1647,304.9,1633.6,318.3,1617,318.3z"/>
	<path fill="#EFF9FE" d="M2147.4,190.8h-313.1c-16.6,0-30-13.4-30-30v-24c0-16.6,13.4-30,30-30h313.1c16.6,0,30,13.4,30,30v24
		C2177.4,177.3,2163.9,190.8,2147.4,190.8z"/>
	<path fill="#EFF9FE" d="M888.7,334.8H548.6c-25.7,0-46.5-20.8-46.5-46.5v0c0-25.7,20.8-46.5,46.5-46.5h340.2
		c25.7,0,46.5,20.8,46.5,46.5v0C935.2,314,914.4,334.8,888.7,334.8z"/>
</g>
<g id="Object">
	<rect y="1260.9" fill="#C0CFD7" width="2272" height="607.3"/>
	<path fill="#9CA9B1" d="M1547,1467H167.8c-32.3,0-58.8-26.5-58.8-58.8v-7.4c0-32.3,26.5-58.8,58.8-58.8H1547
		c32.3,0,58.8,26.5,58.8,58.8v7.4C1605.8,1440.5,1579.4,1467,1547,1467z"/>
	<path fill="#9CA9B1" d="M2212.7,1467h-372.9c-18.2,0-33-14.9-33-33v-0.3c0-18.2,14.9-33,33-33h372.9c18.2,0,33,14.9,33,33v0.3
		C2245.7,1452.1,2230.8,1467,2212.7,1467z"/>
	<rect y="923.2" fill="#C4DA5E" width="2272" height="291"/>
	<rect y="1200" fill="#838E95" width="2272" height="71"/>
	<g>
		<g>
			<path fill="#1B4957" d="M1827.3,1368h-105.8c-8.3,0-15.1-6.8-15.1-15.1v-200.3h-214.3c-8.3,0-15.1-6.8-15.1-15.1
				c0-8.3,6.8-15.1,15.1-15.1h229.4c8.3,0,15.1,6.8,15.1,15.1v200.3h75.6V959.9c0-8.3,6.8-15.1,15.1-15.1h78.1
				c8.3,0,15.1,6.8,15.1,15.1s-6.8,15.1-15.1,15.1h-63v377.9C1842.4,1361.2,1835.7,1368,1827.3,1368z"/>
		</g>
		<path fill="#519EB7" d="M1900.7,1006.5h-28.1c-11,0-19.9-8.9-19.9-19.9v-53.3c0-11,8.9-19.9,19.9-19.9h28.1
			c11,0,19.9,8.9,19.9,19.9v53.3C1920.7,997.5,1911.7,1006.5,1900.7,1006.5z"/>
		<path fill="#FFFFFF" d="M2117.7,1442.8h-181.1c-27.6,0-49.9-22.3-49.9-49.9v-674c0-27.6,22.3-49.9,49.9-49.9h181.1
			c27.6,0,49.9,22.3,49.9,49.9v674C2167.6,1420.5,2145.2,1442.8,2117.7,1442.8z"/>
		<path fill="#1B4957" d="M2194.8,1395.7h-335.4c-9.3,0-16.8,7.5-16.8,16.8v13c0,9.3,7.5,16.8,16.8,16.8h335.4
			c9.3,0,16.8-7.5,16.8-16.8v-13C2211.7,1403.2,2204.1,1395.7,2194.8,1395.7z"/>
		<path fill="#519EB7" d="M2112.8,919.5h-171.3c-1.7,0-3.2-1.4-3.2-3.2V720c0-1.7,1.4-3.2,3.2-3.2h171.3c1.7,0,3.2,1.4,3.2,3.2
			v196.4C2115.9,918.1,2114.5,919.5,2112.8,919.5z"/>
		<rect x="1988.7" y="866.6" fill="#D0DF61" width="76.8" height="25.2"/>
		<rect x="1988.7" y="823.8" fill="#D0DF61" width="76.8" height="25.2"/>
		<rect x="1988.7" y="781" fill="#D0DF61" width="76.8" height="25.2"/>
		<rect x="1988.7" y="738.2" fill="#D0DF61" width="76.8" height="25.2"/>
		<path fill="#519EB7" d="M2054.1,1053.1h-54c-10.8,0-19.6-8.8-19.6-19.6v-54c0-10.8,8.8-19.6,19.6-19.6h54
			c10.8,0,19.6,8.8,19.6,19.6v54C2073.7,1044.3,2065,1053.1,2054.1,1053.1z"/>
		<circle fill="#FFD254" cx="2027.1" cy="1006.5" r="28.3"/>
		<polygon fill="#519EB7" points="2008.8,1089.4 2075.4,1089.4 2034.2,1191 2087.8,1191 2008.8,1339.9 2025.7,1224.8 1979.4,1224.8 
					"/>
		<path fill="#B4C7D1" d="M2065.2,1344.9l-24.8,24.8c-7.1,7.1,3.9,18.1,11,11l24.8-24.8C2083.3,1348.8,2072.3,1337.8,2065.2,1344.9z
			"/>
		<path fill="#B4C7D1" d="M2138.7,1309.7l-63.2,63.2c-7.1,7.1,3.9,18.1,11,11c21.1-21.1,42.1-42.1,63.2-63.2
			C2156.8,1313.6,2145.8,1302.6,2138.7,1309.7z"/>
		<path fill="#B4C7D1" d="M2137.7,1354.2l-21.7,21.7c-7.1,7.1,3.9,18.1,11,11l21.7-21.7C2155.7,1358.1,2144.8,1347.2,2137.7,1354.2z
			"/>
		<path fill="#2D8B9D" d="M2096.3,871.8l-29,29c-7.1,7.1,3.9,18.1,11,11c9.7-9.7,19.3-19.3,29-29
			C2114.3,875.7,2103.4,864.7,2096.3,871.8z"/>
		<path fill="#2D8B9D" d="M2110.4,894.6c-3-3-8-3-11,0l-6.2,6.2c-3,3-3,8,0,11c3,3,8,3,11,0l6.2-6.2
			C2113.3,902.6,2113.3,897.6,2110.4,894.6z"/>
		<path fill="#2D8B9D" d="M1878.5,976.4c-3-3-8-3-11,0l-5.2,5.2c-3,3-3,8,0,11c3,3,8,3,11,0c1.7-1.7,3.5-3.5,5.2-5.2
			C1881.4,984.4,1881.4,979.4,1878.5,976.4z"/>
		<path fill="#2D8B9D" d="M1877.4,952.6c-3-3-8-3-11,0l-7.2,7.2c-3,3-3,8,0,11c3,3,8,3,11,0c2.4-2.4,4.8-4.8,7.2-7.2
			C1880.4,960.6,1880.4,955.6,1877.4,952.6z"/>
		<path fill="#2D8B9D" d="M1878.5,924.6c-3-3-8-3-11,0l-7.2,7.2c-3,3-3,8,0,11c3,3,8,3,11,0c2.4-2.4,4.8-4.8,7.2-7.2
			C1881.4,932.6,1881.4,927.6,1878.5,924.6z"/>
	</g>
	<g>
		<path fill="#001F2A" d="M1431.7,1124.9h-48.1v10.4c-46.4,20.9-79.1,70.9-79.1,129.4s32.7,108.5,79.1,129.4v10.4h48.1
			c70.3,0,127.2-62.6,127.2-139.8C1558.9,1187.5,1501.9,1124.9,1431.7,1124.9z"/>
		<ellipse fill="#001F2A" cx="1383.5" cy="1264.7" rx="127.2" ry="139.8"/>
		<path fill="#001F2A" d="M517.8,1124.9h-48.1v10.4c-46.4,20.9-79.1,70.9-79.1,129.4s32.7,108.5,79.1,129.4v10.4h48.1
			c70.3,0,127.2-62.6,127.2-139.8C645,1187.5,588.1,1124.9,517.8,1124.9z"/>
		<ellipse fill="#001F2A" cx="469.7" cy="1264.7" rx="127.2" ry="139.8"/>
		<path fill="#001F2A" d="M1159.7,1168.9h-48.1v10.4c-46.4,20.9-79.1,70.9-79.1,129.4s32.7,108.5,79.1,129.4v10.4h48.1
			c70.3,0,127.2-62.6,127.2-139.8C1287,1231.5,1230,1168.9,1159.7,1168.9z"/>
		<path fill="#001F2A" d="M311.9,1168.9h-48.1v10.4c-46.4,20.9-79.1,70.9-79.1,129.4s32.7,108.5,79.1,129.4v10.4h48.1
			c70.3,0,127.2-62.6,127.2-139.8C439.1,1231.5,382.1,1168.9,311.9,1168.9z"/>
		<path fill="#519EB7" d="M1680.9,1168.9c0-57.9,0-83.1-34-120.9s-263.3-126-263.3-126S1145.6,718,1136.8,707.9
			c-8.8-10.1-16-17.6-65.3-17.6c-49.3,0-805.1,0-844.1,0s-86.9,17.6-86.9,84.4s0,394.3,0,394.3l1370.5,34L1680.9,1168.9z"/>
		<path fill="#336881" d="M1327,1291.1c80.6,0,337.6,0,351.4,0c13.9,0,11.3-20.2,11.3-31.5s0-83.1,0-90.7s-2.5-16.4-29-16.4
			s-342.6,0-342.6,0L1327,1291.1z"/>
		<path fill="#1B4957" d="M1315.3,1291.1H147.1c-26.6,0-48.2-21.6-48.2-48.2v-42.1c0-26.6,21.6-48.2,48.2-48.2h1168.2
			c26.6,0,48.2,21.6,48.2,48.2v42.1C1363.5,1269.5,1341.9,1291.1,1315.3,1291.1z"/>
		<ellipse fill="#002C37" cx="273.9" cy="1308.8" rx="127.2" ry="139.8"/>
		<ellipse fill="#73909E" cx="273.9" cy="1308.8" rx="79.1" ry="86.9"/>
		<ellipse fill="#566E79" cx="273.9" cy="1308.8" rx="40.1" ry="44.1"/>
		<ellipse fill="#002C37" cx="1111.6" cy="1308.8" rx="127.2" ry="139.8"/>
		<ellipse fill="#73909E" cx="1111.6" cy="1308.8" rx="79.1" ry="86.9"/>
		<ellipse fill="#566E79" cx="1111.6" cy="1308.8" rx="40.1" ry="44.1"/>
		<path fill="#1B4957" d="M1407.6,1182.8h255.7c0,0,5,81.9-127.9,81.9S1407.6,1182.8,1407.6,1182.8z"/>
		<path fill="#DAE257" d="M1199.8,1011.5c-23.7,12.4,27.7,69.3,70.5,90.7c42.8,21.4,78.1,18.9,93.2,5S1276.6,971.2,1199.8,1011.5z"
			/>
		<path fill="#1B4957" d="M1610.1,1107.2h-176.9c-14.1,0-25.6-11.4-25.6-25.6v-1.8c0-14.1,11.4-25.6,25.6-25.6h176.9
			c14.1,0,25.6,11.4,25.6,25.6v1.8C1635.6,1095.8,1624.2,1107.2,1610.1,1107.2z"/>
		<path fill="#AEE2FA" d="M1209.8,797c-45.4-38.8-86.9-81-105.8-81c-18.9,0-294.8,0-294.8,0l223.2,222.4h331
			C1363.5,938.4,1256.9,837.3,1209.8,797z"/>
		<path fill="#AEE2FA" d="M779.1,720.1l215.5,218.3c0,0-551.8,0-560.6,0c-8.8,0-27.1-2.6-27.1-28.4c0-25.8,0-133,0-152.8
			s1.9-37,38.4-37S779.1,720.1,779.1,720.1z"/>
		<path fill="#AEE2FA" d="M217.2,938.4h119.7c17.4,0,31.5-14.1,31.5-31.5V751.6c0-17.4-14.1-31.5-31.5-31.5H217.2
			c-17.4,0-31.5,14.1-31.5,31.5V907C185.8,924.3,199.9,938.4,217.2,938.4z"/>
		<path fill="#1B4957" d="M864.3,993.9h105.4c15.1,0,27.3-12.2,27.3-27.3V938c0-15.1-12.2-27.3-27.3-27.3H864.3
			c-15.1,0-27.3,12.2-27.3,27.3v28.6C837,981.6,849.2,993.9,864.3,993.9z"/>
		<path fill="#1B4957" d="M530.2,1020.3h-72.9c-8.7,0-15.8-7.1-15.8-15.8v-1.1c0-8.7,7.1-15.8,15.8-15.8h72.9
			c8.7,0,15.8,7.1,15.8,15.8v1.1C546,1013.2,538.9,1020.3,530.2,1020.3z"/>
		<path fill="#EE2D36" d="M170.3,1103.4h-22c-11.3,0-20.5-9.2-20.5-20.5v-91.3c0-11.3,9.2-20.5,20.5-20.5h22
			c11.3,0,20.5,9.2,20.5,20.5v91.3C190.8,1094.3,181.6,1103.4,170.3,1103.4z"/>
		<path fill="#FFFFFF" d="M1004.9,725.6H865.1c-10,0-10,15.5,0,15.5h139.8C1014.9,741.2,1014.9,725.6,1004.9,725.6z"/>
		<path fill="#FFFFFF" d="M1055.6,725.6h-24.8c-10,0-10,15.5,0,15.5h24.8C1065.6,741.2,1065.6,725.6,1055.6,725.6z"/>
		<path fill="#FFFFFF" d="M629.1,730.8H469.6c-10,0-10,15.5,0,15.5h159.4C639.1,746.3,639.1,730.8,629.1,730.8z"/>
		<path fill="#FFFFFF" d="M705.7,729.8h-37.3c-10,0-10,15.5,0,15.5h37.3C715.7,745.3,715.7,729.8,705.7,729.8z"/>
		<path fill="#FFFFFF" d="M290.5,730.8h-61.1c-10,0-10,15.5,0,15.5h61.1C300.5,746.3,300.5,730.8,290.5,730.8z"/>
		<path fill="#1B4957" d="M1202.6,931.9c-43.6-10.2-88-16.6-132.5-22c-4.2-0.5-7.8,3.9-7.8,7.8c0,4.6,3.6,7.3,7.8,7.8
			c43.1,5.2,86.1,11.5,128.4,21.5C1208.2,949.2,1212.4,934.2,1202.6,931.9z"/>
		<path fill="#1B4957" d="M1338.2,930.9c-43.6-10.2-88-16.6-132.5-22c-4.2-0.5-7.8,3.9-7.8,7.8c0,4.6,3.6,7.3,7.8,7.8
			c43.1,5.2,86.1,11.5,128.4,21.5C1343.8,948.2,1348,933.2,1338.2,930.9z"/>
		<path fill="#2E7A90" d="M975.4,1015v116.5c0,10,15.5,10,15.5,0V1015C990.9,1005,975.4,1005,975.4,1015z"/>
		<path fill="#2E7A90" d="M378,972.5v162.5c0,10,15.5,10,15.5,0V972.5C393.5,962.5,378,962.5,378,972.5z"/>
		<path fill="#2E7A90" d="M1152.9,994c-17.6-6.3-35.2-12.8-52.6-19.8c-17-6.8-33.7-14.4-51-20.6c-9.5-3.4-13.5,11.6-4.1,15
			c17.3,6.2,34,13.7,51,20.6c17.4,7,34.9,13.5,52.6,19.8C1158.2,1012.4,1162.3,997.4,1152.9,994z"/>
		<path fill="#2E7A90" d="M1405,1129.1c-3.5-7.4-10.3-11.6-17.3-15.2c-3.8-1.9-8.4-1-10.6,2.8c-2.1,3.5-1,8.7,2.8,10.6
			c2.7,1.4,5.3,2.8,7.8,4.5c0.1,0.1,0.2,0.1,0.3,0.2c0.6,0.5,1.1,1.1,1.7,1.6c0.1,0.1,0.2,0.2,0.3,0.3c0,0.1,0.2,0.3,0.4,0.7
			c0.5,0.7,0.8,1.5,1.2,2.3c1.8,3.8,7.2,4.8,10.6,2.8C1406.1,1137.4,1406.8,1132.9,1405,1129.1z"/>
		<path fill="#D5B352" d="M1273.5,1043.4c-0.1-3.7-1.2-7.5-3.6-11.4c-15.1-23.8-54.6-1.7-38.9,24
			C1244.1,1077.4,1274,1063.2,1273.5,1043.4z"/>
		<path fill="#D5B352" d="M1328.4,1078.6c-0.1-3.7-1.2-7.5-3.6-11.4c-15.1-23.8-54.6-1.7-38.9,24
			C1298.9,1112.6,1328.8,1098.4,1328.4,1078.6z"/>
		<path fill="#FFF9B8" d="M1246.1,1025.9c-4.2,0-7.8,3.5-7.8,7.8v1c0,4.2,3.5,7.8,7.8,7.8c4.2,0,7.8-3.5,7.8-7.8v-1
			C1253.9,1029.4,1250.3,1025.9,1246.1,1025.9z"/>
		<path fill="#FFF9B8" d="M1305.1,1062.1c-10,0-10,15.5,0,15.5C1315.1,1077.6,1315.1,1062.1,1305.1,1062.1z"/>
		<path fill="#002C37" d="M1110.8,1299.9c-4.2,0-7.8,3.5-7.8,7.8v1.4c0,4.2,3.5,7.8,7.8,7.8s7.8-3.5,7.8-7.8v-1.4
			C1118.6,1303.4,1115.1,1299.9,1110.8,1299.9z"/>
		<path fill="#002C37" d="M278.3,1307.6c-0.5-1.9-1.8-3.6-3.6-4.6c-1.8-1.1-3.9-1.3-6-0.8c-0.2,0-0.4,0.1-0.6,0.1
			c-2.5,0.6-4.8,2.9-5.4,5.4c0,0.2-0.1,0.4-0.1,0.6c-0.5,2.1-0.3,4.1,0.8,6c1,1.7,2.7,3,4.6,3.6c2.8,0.8,6-0.2,7.9-2.3
			C278.1,1313.6,279.1,1310.5,278.3,1307.6z"/>
		<path fill="#2E7A90" d="M175.6,1109.6c-6.7,6.7-13.3,13.3-20,20c-7.1,7.1,3.9,18.1,11,11l20-20
			C193.7,1113.5,182.7,1102.5,175.6,1109.6z"/>
		<path fill="#2E7A90" d="M214.3,1109.6c-6.7,6.7-13.3,13.3-20,20c-7.1,7.1,3.9,18.1,11,11l20-20
			C232.4,1113.5,221.4,1102.5,214.3,1109.6z"/>
		<path fill="#2E7A90" d="M252.9,1109.6c-6.7,6.7-13.3,13.3-20,20c-7.1,7.1,3.9,18.1,11,11l20-20
			C271,1113.5,260,1102.5,252.9,1109.6z"/>
		<path fill="#2E7A90" d="M291.6,1109.6c-6.7,6.7-13.3,13.3-20,20c-7.1,7.1,3.9,18.1,11,11l20-20
			C309.7,1113.5,298.7,1102.5,291.6,1109.6z"/>
		<path fill="#2E7A90" d="M330.2,1109.6c-6.7,6.7-13.3,13.3-20,20c-7.1,7.1,3.9,18.1,11,11l20-20
			C348.3,1113.5,337.3,1102.5,330.2,1109.6z"/>
		<path fill="#2E7A90" d="M361.3,1109.6c-6.7,6.7-13.3,13.3-20,20c-7.1,7.1,3.9,18.1,11,11l20-20
			C379.4,1113.5,368.4,1102.5,361.3,1109.6z"/>
		<path fill="#2E7A90" d="M1019.7,1109.6c-6.7,6.7-13.3,13.3-20,20c-7.1,7.1,3.9,18.1,11,11l20-20
			C1037.8,1113.5,1026.8,1102.5,1019.7,1109.6z"/>
		<path fill="#2E7A90" d="M1057,1109.6c-6.7,6.7-13.3,13.3-20,20c-7.1,7.1,3.9,18.1,11,11l20-20
			C1075,1113.5,1064.1,1102.5,1057,1109.6z"/>
		<path fill="#2E7A90" d="M1094.3,1109.6c-6.7,6.7-13.3,13.3-20,20c-7.1,7.1,3.9,18.1,11,11l20-20
			C1112.3,1113.5,1101.3,1102.5,1094.3,1109.6z"/>
		<path fill="#2E7A90" d="M1131.5,1109.6c-6.7,6.7-13.3,13.3-20,20c-7.1,7.1,3.9,18.1,11,11l20-20
			C1149.6,1113.5,1138.6,1102.5,1131.5,1109.6z"/>
		<path fill="#2E7A90" d="M1168.8,1109.6c-6.7,6.7-13.3,13.3-20,20c-7.1,7.1,3.9,18.1,11,11l20-20
			C1186.9,1113.5,1175.9,1102.5,1168.8,1109.6z"/>
		<path fill="#2E7A90" d="M1206.1,1109.6c-6.7,6.7-13.3,13.3-20,20c-7.1,7.1,3.9,18.1,11,11l20-20
			C1224.1,1113.5,1213.1,1102.5,1206.1,1109.6z"/>
		<path fill="#2E7A90" d="M1245.4,1109.6c-6.7,6.7-13.3,13.3-20,20c-7.1,7.1,3.9,18.1,11,11l20-20
			C1263.5,1113.5,1252.5,1102.5,1245.4,1109.6z"/>
		<path fill="#2E7A90" d="M723.1,1109.6c-6.7,6.7-13.3,13.3-20,20c-7.1,7.1,3.9,18.1,11,11l20-20
			C741.2,1113.5,730.2,1102.5,723.1,1109.6z"/>
		<path fill="#2E7A90" d="M760.4,1109.6c-6.7,6.7-13.3,13.3-20,20c-7.1,7.1,3.9,18.1,11,11l20-20
			C778.5,1113.5,767.5,1102.5,760.4,1109.6z"/>
		<path fill="#2E7A90" d="M797.7,1109.6c-6.7,6.7-13.3,13.3-20,20c-7.1,7.1,3.9,18.1,11,11l20-20
			C815.7,1113.5,804.7,1102.5,797.7,1109.6z"/>
		<path fill="#2E7A90" d="M834.9,1109.6c-6.7,6.7-13.3,13.3-20,20c-7.1,7.1,3.9,18.1,11,11l20-20
			C853,1113.5,842,1102.5,834.9,1109.6z"/>
		<path fill="#2E7A90" d="M872.2,1109.6c-6.7,6.7-13.3,13.3-20,20c-7.1,7.1,3.9,18.1,11,11l20-20
			C890.3,1113.5,879.3,1102.5,872.2,1109.6z"/>
		<path fill="#2E7A90" d="M909.5,1109.6c-6.7,6.7-13.3,13.3-20,20c-7.1,7.1,3.9,18.1,11,11l20-20
			C927.5,1113.5,916.6,1102.5,909.5,1109.6z"/>
		<path fill="#2E7A90" d="M948.8,1109.6c-6.7,6.7-13.3,13.3-20,20c-7.1,7.1,3.9,18.1,11,11l20-20
			C966.9,1113.5,955.9,1102.5,948.8,1109.6z"/>
		<path fill="#2E7A90" d="M456.6,1109.6c-6.7,6.7-13.3,13.3-20,20c-7.1,7.1,3.9,18.1,11,11l20-20
			C474.7,1113.5,463.7,1102.5,456.6,1109.6z"/>
		<path fill="#2E7A90" d="M493.9,1109.6c-6.7,6.7-13.3,13.3-20,20c-7.1,7.1,3.9,18.1,11,11l20-20
			C512,1113.5,501,1102.5,493.9,1109.6z"/>
		<path fill="#2E7A90" d="M419.4,1109.6c-6.7,6.7-13.3,13.3-20,20c-7.1,7.1,3.9,18.1,11,11l20-20
			C437.4,1113.5,426.5,1102.5,419.4,1109.6z"/>
		<path fill="#2E7A90" d="M531.2,1109.6c-6.7,6.7-13.3,13.3-20,20c-7.1,7.1,3.9,18.1,11,11l20-20
			C549.3,1113.5,538.3,1102.5,531.2,1109.6z"/>
		<path fill="#2E7A90" d="M568.5,1109.6c-6.7,6.7-13.3,13.3-20,20c-7.1,7.1,3.9,18.1,11,11l20-20
			C586.5,1113.5,575.5,1102.5,568.5,1109.6z"/>
		<path fill="#2E7A90" d="M605.7,1109.6c-6.7,6.7-13.3,13.3-20,20c-7.1,7.1,3.9,18.1,11,11l20-20
			C623.8,1113.5,612.8,1102.5,605.7,1109.6z"/>
		<path fill="#2E7A90" d="M643,1109.6c-6.7,6.7-13.3,13.3-20,20c-7.1,7.1,3.9,18.1,11,11l20-20
			C661.1,1113.5,650.1,1102.5,643,1109.6z"/>
		<path fill="#2E7A90" d="M682.3,1109.6c-6.7,6.7-13.3,13.3-20,20c-7.1,7.1,3.9,18.1,11,11l20-20
			C700.4,1113.5,689.4,1102.5,682.3,1109.6z"/>
		<path fill="#2E7A90" d="M1431.7,1118c-4.6,5-9.2,10-13.8,15c-4.9,5.3,2.7,13.5,7.6,8.2l13.8-15
			C1444.2,1120.9,1436.6,1112.7,1431.7,1118z"/>
		<path fill="#2E7A90" d="M1464.2,1118c-4.6,5-9.2,10-13.8,15c-4.9,5.3,2.7,13.5,7.6,8.2l13.8-15
			C1476.6,1120.9,1469.1,1112.7,1464.2,1118z"/>
		<path fill="#2E7A90" d="M1496.6,1118c-4.6,5-9.2,10-13.8,15c-4.9,5.3,2.7,13.5,7.6,8.2l13.8-15
			C1509.1,1120.9,1501.5,1112.7,1496.6,1118z"/>
		<path fill="#2E7A90" d="M1529,1118c-4.6,5-9.2,10-13.8,15c-4.9,5.3,2.7,13.5,7.6,8.2l13.8-15
			C1541.5,1120.9,1533.9,1112.7,1529,1118z"/>
		<path fill="#2E7A90" d="M1561.5,1118c-4.6,5-9.2,10-13.8,15c-4.9,5.3,2.7,13.5,7.6,8.2l13.8-15
			C1573.9,1120.9,1566.4,1112.7,1561.5,1118z"/>
		<path fill="#2E7A90" d="M1593.9,1118c-4.6,5-9.2,10-13.8,15c-4.9,5.3,2.7,13.5,7.6,8.2l13.8-15
			C1606.4,1120.9,1598.8,1112.7,1593.9,1118z"/>
		<path fill="#2E7A90" d="M1626.4,1118c-4.6,5-9.2,10-13.8,15c-4.9,5.3,2.7,13.5,7.6,8.2l13.8-15
			C1638.8,1120.9,1631.3,1112.7,1626.4,1118z"/>
		<path fill="#FFFFFF" d="M1550.9,1074.9c-1.5-5.3-5.6-9.2-10.8-10.8c-0.4-0.1-0.9-0.3-1.3-0.4c-8.1-2.5-16.9,2.9-19.1,10.8
			c-0.5,1.7-0.6,3.5-0.5,5.2c-0.1,1.7,0,3.4,0.5,5.1c1.1,3.9,3.7,7.2,7.1,9.3c3.6,2.1,8,2.7,12,1.6c1.2-0.5,2.5-1,3.7-1.6
			c2.3-1.4,4.2-3.2,5.6-5.6c0.4-0.6,0.9-1.1,1.3-1.7c0.5-1.2,1-2.5,1.6-3.7C1551.6,1080.4,1551.6,1077.7,1550.9,1074.9z"/>
	</g>
	<rect y="1577.2" fill="#C4DA5E" width="2272" height="291"/>
	<rect y="1577.2" fill="#838E95" width="2272" height="71"/>
	<path fill="#9EC55C" d="M368.6,1795.9H137.5c-15.7,0-28.5-12.8-28.5-28.5v0c0-15.7,12.8-28.5,28.5-28.5h231.1
		c15.7,0,28.5,12.8,28.5,28.5v0C397.1,1783.2,384.3,1795.9,368.6,1795.9z"/>
	<path fill="#9EC55C" d="M965.4,1755H734.3c-15.7,0-28.5-12.8-28.5-28.5l0,0c0-15.7,12.8-28.5,28.5-28.5h231.1
		c15.7,0,28.5,12.8,28.5,28.5l0,0C994,1742.2,981.2,1755,965.4,1755z"/>
	<path fill="#9EC55C" d="M1374.2,1824.4h-231.1c-15.7,0-28.5-12.8-28.5-28.5l0,0c0-15.7,12.8-28.5,28.5-28.5h231.1
		c15.7,0,28.5,12.8,28.5,28.5l0,0C1402.7,1811.7,1390,1824.4,1374.2,1824.4z"/>
	<path fill="#9EC55C" d="M1738.8,1755h-231.1c-15.7,0-28.5-12.8-28.5-28.5l0,0c0-15.7,12.8-28.5,28.5-28.5h231.1
		c15.7,0,28.5,12.8,28.5,28.5l0,0C1767.3,1742.2,1754.5,1755,1738.8,1755z"/>
	<path fill="#9EC55C" d="M2149.2,1795.9H1918c-15.7,0-28.5-12.8-28.5-28.5v0c0-15.7,12.8-28.5,28.5-28.5h231.1
		c15.7,0,28.5,12.8,28.5,28.5v0C2177.7,1783.2,2164.9,1795.9,2149.2,1795.9z"/>
</g>
</svg>
