<?xml version="1.0" encoding="utf-8"?>
<!-- Generator: Adobe Illustrator 14.0.0, SVG Export Plug-In . SVG Version: 6.00 Build 43363)  -->
<!DOCTYPE svg PUBLIC "-//W3C//DTD SVG 1.1//EN" "http://www.w3.org/Graphics/SVG/1.1/DTD/svg11.dtd">
<svg version="1.1" xmlns="http://www.w3.org/2000/svg" xmlns:xlink="http://www.w3.org/1999/xlink" x="0px" y="0px" width="2272px"
	 height="1872px" viewBox="0 0 2272 1872" enable-background="new 0 0 2272 1872" xml:space="preserve" preserveAspectRatio="none">
<g id="Background" >
	<rect fill="#C8F4FF" width="2272" height="1874"/>
</g>
<g id="clouds">
	<path fill="#FFFFFF" d="M1791.763,632.291C1807.008,608.899,1850.82,592,1902.5,592c64.341,0,116.5,26.191,116.5,58.5
		c0,1.288-0.092,2.564-0.255,3.831c31.137,2.577,55.255,20.467,55.255,42.169c0,23.472-28.206,42.5-63,42.5
		c-30.925,0-56.626-15.035-61.965-34.858c-14.254,3.123-29.99,4.858-46.535,4.858c-11.187,0-22.004-0.793-32.243-2.271
		c-14.963,8.19-35.756,13.271-58.757,13.271c-45.563,0-82.5-19.923-82.5-44.5C1729,654.594,1755.733,637.064,1791.763,632.291z"/>
	<path fill="#FFFFFF" d="M549.237,382.292C533.992,358.899,490.179,342,438.5,342c-64.341,0-116.5,26.191-116.5,58.5
		c0,1.288,0.092,2.564,0.255,3.831C291.118,406.908,267,424.798,267,446.5c0,23.472,28.206,42.5,63,42.5
		c30.924,0,56.626-15.035,61.964-34.858c14.254,3.123,29.99,4.858,46.536,4.858c11.187,0,22.003-0.793,32.243-2.271
		C485.706,464.918,506.499,470,529.5,470c45.563,0,82.5-19.923,82.5-44.5C612,404.594,585.266,387.064,549.237,382.292z"/>
	<path fill="#FFFFFF" d="M997.5,156c-2.909,0-5.751,0.199-8.512,0.562C984.333,140.833,964.17,129,940,129
		c-27.614,0-50,15.446-50,34.5s22.386,34.5,50,34.5c4.267,0,8.408-0.371,12.362-1.065C957.37,211.327,975.675,222,997.5,222
		c25.681,0,46.5-14.774,46.5-33S1023.181,156,997.5,156z"/>
	<ellipse fill="#FFFFFF" cx="836" cy="127" rx="30" ry="22"/>
	<path fill="#FFFFFF" d="M2081,321c-10.466,0-20.23,1.742-28.504,4.749c0.319-1.558,0.504-3.14,0.504-4.749
		c0-21.539-29.549-39-66-39s-66,17.461-66,39s29.549,39,66,39c15.052,0,28.918-2.983,40.021-7.995
		c-0.004,0.166-0.021,0.329-0.021,0.495c0,17.397,24.177,31.5,54,31.5s54-14.103,54-31.5S2110.823,321,2081,321z"/>
</g>
<g id="mountains_and_hills">
	<g>
		<path fill="#426163" d="M564,1019.82c12.728,9.256,789.125-709.288,860.864-820.367c0,0,719.7,899.047,770.612,951.116
			C2246.387,1202.638,2273,1360,2273,1360l-1709-15.042V1019.82z"/>
		<path fill="#608E8E" d="M1472.304,287.391l-1.192-30.208c-14.739-18.391-26.399-32.947-34.325-42.842l-37.138,17.253
			C1247.306,408.363,575.829,1028.423,564,1019.82v325.138l436.566,3.843L1472.304,287.391z"/>
		<path fill="#EEEEEE" d="M1348.816,540.971l157.043,105.114l99.508-85.624l71.884,80.495l51.572-63.963
			c-162.165-201.567-303.959-378.696-303.959-378.696c-28.898,44.746-172.142,188.064-333.75,342.674l112.748,97.015
			L1348.816,540.971z"/>
	</g>
	<path fill="#1D98A0" d="M311,953L311,953c-114.809,0-221.658,34.066-311,92.637V1521h879v-0.001C879,1207.302,624.698,953,311,953z
		"/>
	<g>
		<g>
			<polygon fill="#EFEFEF" points="305,1292 219,1292 262,666 305,666 			"/>
			<polygon fill="#EAE8E9" points="304,1291 390,1291 347,665 304,665 			"/>
			<g>
				<g>
					<path fill="#EAE8E9" d="M490,936.5c1.93,0,1.934-3,0-3C488.069,933.5,488.066,936.5,490,936.5L490,936.5z"/>
				</g>
			</g>
		</g>
		<polygon fill="#F35A4A" points="353,759 255,759 256,731 352,731 		"/>
	</g>
	<g>
		<g>
			<polygon fill="#EFEFEF" points="478.765,1217.353 413,1217.353 445.882,738.647 478.765,738.647 			"/>
			<polygon fill="#EAE8E9" points="477.765,1217.353 543.529,1217.353 510.647,738.647 477.765,738.647 			"/>
			<g>
				<g>
					<path fill="#EAE8E9" d="M620,946.617c1.93,0,1.934-3,0-3C618.069,943.617,618.066,946.617,620,946.617L620,946.617z"/>
				</g>
			</g>
		</g>
		<polygon fill="#F35A4A" points="515.235,810.529 440.294,810.529 441.059,789.118 514.471,789.118 		"/>
	</g>
	<path fill="#28B1C1" d="M614,1107L614,1107c114.809,0,221.658,34.066,311,92.637V1675H46v-0.001C46,1361.302,300.302,1107,614,1107
		z"/>
	<path fill="#1D98A0" d="M2279,1424h-865v-39.5c0-238.863,193.637-432.5,432.5-432.5l0,0c238.863,0,432.5,193.637,432.5,432.5V1424z
		"/>
</g>
<g id="road">
	<path fill="#6B8A2D" d="M2255.7,1370l-2.7-3l-7-19l-12.1,22h-20.978l-4.923-8l-15-26c0,0-18,26-21,26
		c-1.732,0-14.138,4.336-24.312,8h-17.823c-3.232-3.689-7.551-8.089-9.865-8.211c-4-0.211-14-20.789-14-20.789s-13,16-14,20.789
		c-0.462,2.211-5.187,5.408-10.139,8.211H2065.5l-25.5-34l-14,16l-28.637,18h-8.53L1978,1350l-31-8l-25,20c0,0-6,0-11-5s1-4-6-14
		s-6-7-6-7l-22,31l-11-5.099c0,0-7-17.901-8-24.901s-9,19-9,19l-7.438,14h-21.355l-7.207-11l-13-22l-22.275,33h-21.541
		c-3.052-3.758-13.906-17.302-18.184-25c-5-9-4,8-8,14c-2.681,4.021-10.747,8.488-15.779,11h-5.265L1698,1349l-10.818,21h-13.399
		c-1.48-2.736-2.865-5.555-3.782-8c-3-8-5-19-5-19l-24.107,27h-1.375L1626,1342c0,0-17,27-21,20s-13-25-13-25l-16,32l-19-25
		l-35.801,23.222L1521,1367l-7-19l-1.354,2.463L1507,1337l-6.77,33h-19.308l-4.923-8l-15-26c0,0-18,26-21,26
		c-1.732,0-14.138,4.336-24.312,8h-17.823c-3.232-3.689-7.552-8.089-9.865-8.211c-4-0.211-14-20.789-14-20.789s-13,16-14,20.789
		c-0.462,2.211-5.187,5.408-10.139,8.211H1333.5l-25.5-34l-14,16l-28.637,18h-8.53L1246,1350l-31-8l-25,20c0,0-6,0-11-5s1-4-6-14
		s-6-7-6-7l-22,31l-11-5.099c0,0-7-17.901-8-24.901s-9,19-9,19l-7.438,14h-21.355l-7.207-11l-13-22l-22.275,33h-21.541
		c-3.052-3.758-13.907-17.302-18.184-25c-5-9-4,8-8,14c-2.681,4.021-10.747,8.488-15.779,11h-5.264L966,1349l-10.818,21h-13.4
		c-1.48-2.736-2.865-5.555-3.782-8c-3-8-5-19-5-19l-24.107,27h-1.376L894,1342c0,0-17,27-21,20s-13-25-13-25l-16,32l-19-25l-37,24
		l-13-31l-5.741,27.988L763,1348l-12.1,22h-20.977l-4.923-8l-15-26c0,0-18,26-21,26c-1.733,0-14.138,4.336-24.312,8h-17.823
		c-3.232-3.689-7.551-8.089-9.865-8.211c-4-0.211-14-20.789-14-20.789s-13,16-14,20.789c-0.462,2.211-5.187,5.408-10.139,8.211
		H582.5l-25.5-34l-14,16l-28.636,18h-8.53L495,1350l-31-8l-25,20c0,0-6,0-11-5s1-4-6-14s-6-7-6-7l-22,31l-11-5.099
		c0,0-7-17.901-8-24.901s-9,19-9,19l-7.438,14h-21.355L330,1359l-13-22l-22.275,33h-21.541c-3.052-3.758-13.907-17.302-18.184-25
		c-5-9-4,8-8,14c-2.681,4.021-10.747,8.488-15.779,11h-5.264L215,1349l-10.818,21h-13.4c-1.48-2.736-2.865-5.555-3.782-8
		c-3-8-5-19-5-19l-24.107,27h-1.376L143,1342c0,0-17,27-21,20s-13-25-13-25l-16,32l-19-25l-37,24l-13-31l-6.769,33H0v145h2272v-145
		H2255.7z"/>
	<rect y="1443" fill="#CEC7A5" width="2272" height="321"/>
	<g>
		<path fill="#AFA88C" d="M239,1491h-43v-5.5c0-11.874,9.626-21.5,21.5-21.5l0,0c11.874,0,21.5,9.626,21.5,21.5V1491z"/>
		<path fill="#AFA88C" d="M128,1631H85l0,0c0-11.874,9.626-21.5,21.5-21.5l0,0C118.374,1609.5,128,1619.126,128,1631L128,1631z"/>
		<path fill="#AFA88C" d="M737,1662h-43l0,0c0-11.874,9.626-21.5,21.5-21.5l0,0C727.374,1640.5,737,1650.126,737,1662L737,1662z"/>
		<path fill="#AFA88C" d="M1419,1631h-43l0,0c0-11.874,9.626-21.5,21.5-21.5l0,0C1409.374,1609.5,1419,1619.126,1419,1631L1419,1631
			z"/>
		<path fill="#AFA88C" d="M2209,1558h-43l0,0c0-11.874,9.626-21.5,21.5-21.5l0,0C2199.374,1536.5,2209,1546.126,2209,1558L2209,1558
			z"/>
	</g>
</g>
<g id="grass">
	<g>
		<path fill="#82AB31" d="M2255.7,1729l-2.7-3l-7-19l-12.1,22h-20.978l-4.923-8l-15-26c0,0-18,26-21,26
			c-1.732,0-14.138,4.336-24.312,8h-17.823c-3.232-3.689-7.551-8.089-9.865-8.211c-4-0.211-14-20.789-14-20.789s-13,16-14,20.789
			c-0.462,2.211-5.187,5.408-10.139,8.211H2065.5l-25.5-34l-14,16l-28.637,18h-8.53L1978,1709l-31-8l-25,20c0,0-6,0-11-5s1-4-6-14
			s-6-7-6-7l-22,31l-11-5.099c0,0-7-17.901-8-24.901s-9,19-9,19l-7.438,14h-21.355l-7.207-11l-13-22l-22.275,33h-21.541
			c-3.052-3.758-13.906-17.302-18.184-25c-5-9-4,8-8,14c-2.681,4.021-10.747,8.488-15.779,11h-5.265L1698,1708l-10.818,21h-13.399
			c-1.48-2.736-2.865-5.555-3.782-8c-3-8-5-19-5-19l-24.107,27h-1.375L1626,1701c0,0-17,27-21,20s-13-25-13-25l-16,32l-19-25
			l-35.801,23.222L1521,1726l-7-19l-1.354,2.463L1507,1696l-6.77,33h-19.308l-4.923-8l-15-26c0,0-18,26-21,26
			c-1.732,0-14.138,4.336-24.312,8h-17.823c-3.232-3.689-7.552-8.089-9.865-8.211c-4-0.211-14-20.789-14-20.789s-13,16-14,20.789
			c-0.462,2.211-5.187,5.408-10.139,8.211H1333.5l-25.5-34l-14,16l-28.637,18h-8.53L1246,1709l-31-8l-25,20c0,0-6,0-11-5s1-4-6-14
			s-6-7-6-7l-22,31l-11-5.099c0,0-7-17.901-8-24.901s-9,19-9,19l-7.438,14h-21.355l-7.207-11l-13-22l-22.275,33h-21.541
			c-3.052-3.758-13.907-17.302-18.184-25c-5-9-4,8-8,14c-2.681,4.021-10.747,8.488-15.779,11h-5.264L966,1708l-10.818,21h-13.4
			c-1.48-2.736-2.865-5.555-3.782-8c-3-8-5-19-5-19l-24.107,27h-1.376L894,1701c0,0-17,27-21,20s-13-25-13-25l-16,32l-19-25l-37,24
			l-13-31l-5.741,27.988L763,1707l-12.1,22h-20.977l-4.923-8l-15-26c0,0-18,26-21,26c-1.733,0-14.138,4.336-24.312,8h-17.823
			c-3.232-3.689-7.551-8.089-9.865-8.211c-4-0.211-14-20.789-14-20.789s-13,16-14,20.789c-0.462,2.211-5.187,5.408-10.139,8.211
			H582.5l-25.5-34l-14,16l-28.636,18h-8.53L495,1709l-31-8l-25,20c0,0-6,0-11-5s1-4-6-14s-6-7-6-7l-22,31l-11-5.099
			c0,0-7-17.901-8-24.901s-9,19-9,19l-7.438,14h-21.355L330,1718l-13-22l-22.275,33h-21.541c-3.052-3.758-13.907-17.302-18.184-25
			c-5-9-4,8-8,14c-2.681,4.021-10.747,8.488-15.779,11h-5.264L215,1708l-10.818,21h-13.4c-1.48-2.736-2.865-5.555-3.782-8
			c-3-8-5-19-5-19l-24.107,27h-1.376L143,1701c0,0-17,27-21,20s-13-25-13-25l-16,32l-19-25l-37,24l-13-31l-6.769,33H0v145h2272v-145
			H2255.7z"/>
		<rect y="1784" opacity="0.5" fill="#698425" width="2272" height="90"/>
	</g>
</g>
<g id="biofuel_station">
	<g>
		<g>
			<path fill="#A0B3C2" d="M1945.264,1442.283H790.736c-4.971,0-9-4.029-9-9v-15.823c0-4.971,4.029-9,9-9h1154.527
				c4.971,0,9,4.029,9,9v15.823C1954.264,1438.254,1950.234,1442.283,1945.264,1442.283z"/>
			<rect x="802.406" y="745.155" fill="#D0D3D6" width="1133.066" height="663.305"/>
		</g>
		<path fill="#82AB31" d="M888.842,1493.018H721.607v-293.535c0-7.042,5.708-12.75,12.75-12.75h141.735
			c7.042,0,12.75,5.708,12.75,12.75V1493.018z"/>
		<rect x="915.149" y="1040.166" fill="#43494C" width="905.703" height="368.294"/>
		<g>
			<circle fill="#F7F7F7" cx="807.071" cy="1372" r="62.929"/>
			<g>
				<polygon fill="#FFD400" points="794.904,1422.918 794.904,1422.918 810.479,1367.627 784.669,1367.627 802.291,1330.394 
					816.286,1330.394 802.807,1357.633 825.202,1357.633 				"/>
			</g>
		</g>
		<g>
			<g>
				<line fill="#43494C" x1="915.149" y1="1135.998" x2="1820.852" y2="1135.998"/>
				<rect x="915.149" y="1128.008" fill="#82AB31" width="905.703" height="15.979"/>
			</g>
			<g>
				<g>
					<rect x="1206.247" y="1043.77" fill="#43494C" width="178.82" height="362.967"/>
					<path fill="#82AB31" d="M1382.403,1046.433v357.641h-173.494v-357.641H1382.403 M1387.73,1041.105h-184.147v368.294h184.147
						V1041.105L1387.73,1041.105z"/>
				</g>
				<g>
					<rect x="1390.393" y="1043.77" fill="#43494C" width="178.821" height="362.967"/>
					<path fill="#82AB31" d="M1566.551,1046.433v357.641h-173.494v-357.641H1566.551 M1571.877,1041.105H1387.73v368.294h184.146
						V1041.105L1571.877,1041.105z"/>
				</g>
				<rect x="1414.037" y="1193.309" fill="#82AB31" width="4.252" height="40.399"/>
				<rect x="1355.786" y="1193.309" fill="#82AB31" width="4.253" height="40.399"/>
			</g>
		</g>
		<g>
			<g>
				<path fill="#332C29" d="M1745.689,1459.194h-560.978c-4.626,0-8.375,3.75-8.375,8.375v38.602h569.353V1459.194z"/>
				<path fill="#756558" d="M1708.895,1282.853c-2.688-6.982-9.215-11.563-16.475-11.563h-285.958
					c-5.704,0-11.06,2.842-14.394,7.635l-65.115,93.646c-2.537,3.649-6.701,5.826-11.146,5.826h-44.108
					c-52.666,0-95.361,42.694-95.361,95.361v26.776c0,14.529,11.778,26.307,26.307,26.307h40.635
					c-1.165-5.538-1.505-11.38-0.833-17.403c2.936-26.32,24.979-47.011,51.431-48.297c31.331-1.522,57.213,23.429,57.213,54.427
					c0,3.865-0.409,7.635-1.175,11.273h222.197c-1.165-5.538-1.504-11.38-0.832-17.403c2.936-26.32,24.979-47.011,51.431-48.297
					c31.331-1.522,57.212,23.429,57.212,54.427c0,3.865-0.408,7.635-1.174,11.273h40.634c14.529,0,26.308-11.777,26.308-26.307
					v-86.436L1708.895,1282.853z"/>
				<path fill="#EDE2C2" d="M1415.533,1282.563c-5.299,0-10.274,2.546-13.375,6.842l-58.649,81.267
					c-2.325,3.223-0.022,7.724,3.951,7.724h124.652c2.691,0,4.872-2.182,4.872-4.872v-86.088c0-2.69-2.181-4.872-4.872-4.872
					H1415.533z"/>
				<path fill="#EDE2C2" d="M1488.259,1288.905v83.148c0,3.502,2.84,6.342,6.343,6.342h100.059c3.503,0,6.342-2.84,6.342-6.342
					v-83.148c0-3.502-2.839-6.342-6.342-6.342h-100.059C1491.099,1282.563,1488.259,1285.403,1488.259,1288.905z"/>
				<path fill="#EDE2C2" d="M1696.387,1292.91c-2.497-6.248-8.558-10.347-15.299-10.347h-60.916c-4.36,0-7.896,3.535-7.896,7.896
					v80.041c0,4.36,3.535,7.896,7.896,7.896h90.569c5.262,0,9.051-5.05,7.581-10.102L1696.387,1292.91z"/>
				<path fill="#564943" d="M1679.099,1506.171c0.531,3.054,0.823,6.189,0.823,9.396c0,3.865-0.408,7.635-1.174,11.273h49.403
					c9.686,0,17.538-7.852,17.538-17.537v-3.132H1679.099z"/>
				<g>
					<circle fill="#564943" cx="1296.596" cy="1515.566" r="50.734"/>
					<circle fill="#332C29" cx="1296.596" cy="1515.566" r="31.49"/>
					<circle fill="#EDE2C2" cx="1296.596" cy="1515.566" r="22.743"/>
					<circle fill="#FCF3DE" cx="1296.597" cy="1515.566" r="15.745"/>
				</g>
				<g>
					<circle fill="#564943" cx="1625.43" cy="1515.566" r="50.734"/>
					<circle fill="#332C29" cx="1625.43" cy="1515.566" r="31.49"/>
					<circle fill="#EDE2C2" cx="1625.43" cy="1515.566" r="22.743"/>
					<circle fill="#FCF3DE" cx="1625.43" cy="1515.566" r="15.745"/>
				</g>
				<g>
					<path fill="#564943" d="M1350.265,1506.171c0.531,3.054,0.824,6.189,0.824,9.396c0,3.865-0.409,7.635-1.175,11.273h222.197
						c-0.765-3.639-1.174-7.408-1.174-11.273c0-3.206,0.293-6.342,0.823-9.396H1350.265z"/>
					<path fill="#564943" d="M1242.104,1515.566c0-3.206,0.293-6.342,0.824-9.396h-66.591v3.132c0,9.686,7.852,17.537,17.538,17.537
						h49.403C1242.513,1523.201,1242.104,1519.432,1242.104,1515.566z"/>
				</g>
				<path fill="#332C29" d="M1591.986,1414.098h-28.944c-0.828,0-1.5-0.672-1.5-1.5v-2.638c0-0.828,0.672-1.5,1.5-1.5h28.944
					c0.828,0,1.5,0.672,1.5,1.5v2.638C1593.486,1413.426,1592.814,1414.098,1591.986,1414.098z"/>
				<path fill="#332C29" d="M1469.848,1414.098h-28.943c-0.829,0-1.5-0.672-1.5-1.5v-2.638c0-0.828,0.671-1.5,1.5-1.5h28.943
					c0.828,0,1.5,0.672,1.5,1.5v2.638C1471.348,1413.426,1470.676,1414.098,1469.848,1414.098z"/>
				<path fill="#FFB469" d="M1183.266,1493.018h-6.929v-16.912h6.929c3.438,0,6.225,2.787,6.225,6.225v4.463
					C1189.49,1490.23,1186.703,1493.018,1183.266,1493.018z"/>
				<path fill="#FFB469" d="M1738.76,1493.018h6.93v-16.912h-6.93c-3.438,0-6.225,2.787-6.225,6.225v4.463
					C1732.535,1490.23,1735.322,1493.018,1738.76,1493.018z"/>
				<path fill="#EE480A" d="M1181.856,1474.227L1181.856,1474.227c3.179,0,5.755-2.576,5.755-5.754v-11.04
					c0-3.178-2.576-5.755-5.755-5.755l0,0c-4.086,0-7.398,3.313-7.398,7.399v7.751
					C1174.458,1470.914,1177.771,1474.227,1181.856,1474.227z"/>
				<path fill="#EE480A" d="M1743.928,1474.227L1743.928,1474.227c-3.179,0-5.755-2.576-5.755-5.754v-11.04
					c0-3.178,2.576-5.755,5.755-5.755l0,0c4.086,0,7.398,3.313,7.398,7.399v7.751
					C1751.326,1470.914,1748.014,1474.227,1743.928,1474.227z"/>
				<rect x="1200.765" y="1432.888" fill="#564943" width="432.182" height="3.758"/>
				<g>
					<circle fill="#564943" cx="1676.607" cy="1421.465" r="32.464"/>
					<g>
						<polygon fill="#FFD400" points="1670.33,1447.732 1670.33,1447.732 1678.365,1419.209 1665.05,1419.209 1674.141,1400 
							1681.36,1400 1674.406,1414.053 1685.961,1414.053 						"/>
					</g>
				</g>
			</g>
			<circle fill="#332C29" cx="1696.833" cy="1423.492" r="7.516"/>
		</g>
		<g>
			<path fill="#E6E9EE" d="M1777.633,745.155v781.685h48.855v-444.834c0-27.258,22.098-49.355,49.355-49.355h119.258
				c27.259,0,49.356,22.098,49.356,49.355v444.834h48.855V745.155H1777.633z"/>
			<path fill="#82AB31" d="M2020.03,1493.018h-167.235V1210.69c0-13.231,10.727-23.958,23.958-23.958h119.319
				c13.231,0,23.958,10.727,23.958,23.958V1493.018z"/>
			<path fill="#756558" d="M2031.305,1524.961h-191.663v-21.609c0-6.745,5.468-12.213,12.214-12.213h167.235
				c6.745,0,12.214,5.468,12.214,12.213V1524.961z"/>
			<g>
				<circle fill="#F7F7F7" cx="1936.071" cy="1360" r="62.929"/>
				<g>
					<polygon fill="#FFD400" points="1923.904,1410.918 1923.904,1410.918 1939.479,1355.627 1913.669,1355.627 1931.291,1318.394 
						1945.286,1318.394 1931.807,1345.633 1954.202,1345.633 					"/>
				</g>
			</g>
			<g>
				<g>
					<path fill="#756558" d="M1983.075,1267.531h-97.084c-5.881,0-10.647-4.768-10.647-10.647v-33.197
						c0-5.88,4.767-10.647,10.647-10.647h97.084c5.881,0,10.648,4.768,10.648,10.647v33.197
						C1993.724,1262.764,1988.956,1267.531,1983.075,1267.531z"/>
				</g>
				<g>
					<path fill="#FFFFFF" d="M1983.075,1270.195h-97.083c-7.34,0-13.312-5.972-13.312-13.312v-33.197
						c0-7.34,5.972-13.312,13.312-13.312h97.083c7.34,0,13.311,5.972,13.311,13.312v33.197
						C1996.386,1264.224,1990.415,1270.195,1983.075,1270.195z M1885.992,1215.702c-4.404,0-7.986,3.582-7.986,7.984v33.197
						c0,4.402,3.582,7.984,7.986,7.984h97.083c4.404,0,7.985-3.582,7.985-7.984v-33.197c0-4.402-3.581-7.984-7.985-7.984H1885.992z"
						/>
				</g>
			</g>
			<circle fill="#756558" cx="1995.603" cy="1293.838" r="15.032"/>
			<circle fill="#332C29" cx="1995.603" cy="1293.838" r="11.274"/>
			<g>
				<path fill="#066A36" d="M1718.973,1525.33c-3.785,0-10.601-0.981-16.402-7.071c-6.458-6.778-9.731-17.701-9.731-32.465v-60.22
					c0-2.699,1.789-4.888,3.995-4.888c2.205,0,3.994,2.188,3.994,4.888v60.22c0,11.724,2.314,20.126,6.878,24.975
					c5.542,5.887,12.903,4.691,12.97,4.677l0.586-0.053h219.849c22.791,0,38.767-6.157,46.2-17.807
					c6.688-10.483,4.44-21.987,4.416-22.103l-0.119-0.583v-179.933c0-2.7,1.789-4.888,3.995-4.888s3.995,2.188,3.995,4.888v178.814
					c0.52,3.214,2.132,17.092-5.991,29.819c-9.132,14.312-26.793,21.566-52.496,21.566h-219.598
					C1721.045,1525.233,1720.156,1525.33,1718.973,1525.33z"/>
			</g>
			<path fill="#A0B3C2" d="M2102.708,1558.784h-334.471c-9.34,0-16.911-7.571-16.911-16.911l0,0c0-9.341,7.571-16.912,16.911-16.912
				h334.471c9.341,0,16.912,7.571,16.912,16.912l0,0C2119.62,1551.213,2112.049,1558.784,2102.708,1558.784z"/>
		</g>
		<g>
			<g>
				<path fill="#756558" d="M851.888,1267.531h-97.084c-5.881,0-10.648-4.768-10.648-10.647v-33.197
					c0-5.88,4.768-10.647,10.648-10.647h97.084c5.881,0,10.648,4.768,10.648,10.647v33.197
					C862.536,1262.764,857.769,1267.531,851.888,1267.531z"/>
			</g>
			<g>
				<path fill="#FFFFFF" d="M851.887,1270.195h-97.083c-7.34,0-13.312-5.972-13.312-13.312v-33.197
					c0-7.34,5.971-13.312,13.312-13.312h97.083c7.34,0,13.311,5.972,13.311,13.312v33.197
					C865.198,1264.224,859.227,1270.195,851.887,1270.195z M754.804,1215.702c-4.404,0-7.986,3.582-7.986,7.984v33.197
					c0,4.402,3.582,7.984,7.986,7.984h97.083c4.404,0,7.986-3.582,7.986-7.984v-33.197c0-4.402-3.582-7.984-7.986-7.984H754.804z"/>
			</g>
		</g>
		<circle fill="#756558" cx="864.415" cy="1293.838" r="15.032"/>
		<circle fill="#332C29" cx="864.415" cy="1293.838" r="11.274"/>
		<path fill="#E6E9EE" d="M646.445,745.155v781.685H695.3v-444.834c0-27.258,22.097-49.355,49.356-49.355h119.258
			c27.259,0,49.356,22.098,49.356,49.355v444.834h48.855V745.155H646.445z"/>
		<path fill="#756558" d="M900.117,1524.961H708.454v-27.322c0-3.59,2.91-6.5,6.5-6.5h178.663c3.59,0,6.5,2.91,6.5,6.5V1524.961z"/>
		<path fill="#A0B3C2" d="M979.432,1558.784H629.138c-4.971,0-9-4.029-9-9v-15.823c0-4.971,4.029-9,9-9h350.294c4.97,0,9,4.029,9,9
			v15.823C988.432,1554.755,984.402,1558.784,979.432,1558.784z"/>
		<g>
			<path fill="#066A36" d="M887.262,1475.873c-6.641,0-12.895-0.119-17.987-3.381c-6.041-3.869-8.854-11.079-8.854-22.693v-155.961
				c0-2.205,1.788-3.995,3.995-3.995s3.995,1.79,3.995,3.995v155.961c0,12.65,3.895,15.146,5.174,15.965
				c3.322,2.129,8.45,2.116,14.466,2.119h0.792c8.902,0,9.159-7.799,9.159-8.688v-167.235c0-2.206,1.788-3.995,3.995-3.995
				s3.995,1.789,3.995,3.995v167.235c0,6.705-4.566,16.679-17.148,16.679h-0.786
				C887.791,1475.873,887.526,1475.873,887.262,1475.873z"/>
		</g>
		<path fill="#82AB31" d="M2209.588,933.061H526.412c-15.691,0-28.412-12.721-28.412-28.412v-51.846
			c0-69.83,56.608-126.438,126.438-126.438h1487.125c69.829,0,126.438,56.608,126.438,126.438v51.846
			C2238,920.34,2225.279,933.061,2209.588,933.061z"/>
		<path fill="#9EC43F" d="M2111.563,726.365H624.438c-69.83,0-126.438,56.608-126.438,126.438v51.846
			c0,15.691,12.72,28.412,28.412,28.412H569v-33.258c0-69.83,56.608-126.438,126.438-126.438h1487.125
			c10.412,0,20.525,1.268,30.206,3.641C2189.704,746.259,2152.957,726.365,2111.563,726.365z"/>
		<g>
			<g>
				<g>
					<path fill="#066A36" d="M912.567,1211.16h-7.99v-27.606l0.064-0.354c0.039-0.281,1.099-8.682-10.168-19.949l5.65-5.649
						c13.052,13.053,12.705,24.141,12.444,26.556V1211.16z"/>
				</g>
			</g>
			<path fill="#756558" d="M912.213,1201.765h-6.342c-6.81,0-12.331,5.521-12.331,12.331v28.068h-1.174
				c-7.135,0-12.918,5.784-12.918,12.919v3.992v3.759v15.032c0,7.783,6.31,14.093,14.093,14.093h16.911
				c7.784,0,14.093-6.31,14.093-14.093v-15.032v-3.759v-44.979C924.544,1207.285,919.023,1201.765,912.213,1201.765z
				 M916.555,1277.866c0,3.365-2.738,6.104-6.104,6.104H893.54c-3.365,0-6.104-2.738-6.104-6.104v-10.801h29.118V1277.866z"/>
		</g>
		<g>
			<path fill="#756558" d="M2019.412,856l-22.574,42h241.153c0.001-0.117,0.009-0.233,0.009-0.351V856H2019.412z"/>
			<polygon fill="#756558" points="1979.412,856 1956.838,898 1976.838,898 1999.412,856 			"/>
			<g>
				<path fill="#756558" d="M1920.412,856H498v41.649c0,0.118,0.007,0.234,0.009,0.351h1399.829L1920.412,856z"/>
				<polygon fill="#756558" points="1940.412,856 1917.838,898 1936.838,898 1959.412,856 				"/>
			</g>
		</g>
	</g>
	<rect x="646" y="933" opacity="0.5" fill="#BEBEBF" width="1447" height="46"/>
	<g>
		<circle fill="#F7F7F7" cx="646.071" cy="843" r="62.929"/>
		<g>
			<polygon fill="#FFD400" points="633.904,893.918 633.904,893.918 649.479,838.627 623.669,838.627 641.291,801.394 
				655.286,801.394 641.807,828.633 664.202,828.633 			"/>
		</g>
	</g>
</g>
</svg>
