<?xml version="1.0" encoding="utf-8"?>
<!-- Generator: Adobe Illustrator 14.0.0, SVG Export Plug-In . SVG Version: 6.00 Build 43363)  -->
<!DOCTYPE svg PUBLIC "-//W3C//DTD SVG 1.1//EN" "http://www.w3.org/Graphics/SVG/1.1/DTD/svg11.dtd">
<svg version="1.1" xmlns="http://www.w3.org/2000/svg" xmlns:xlink="http://www.w3.org/1999/xlink" x="0px" y="0px" width="2272px"
	 height="1872px" viewBox="0 0 2272 1872" enable-background="new 0 0 2272 1872" xml:space="preserve" preserveAspectRatio="none">
<g id="back">
	<g>
		<rect fill="#CAFCED" width="2272" height="1873"/>
	</g>
</g>
<g id="_x35_">
</g>
<g id="_x34_">
</g>
<g id="_x33_">
</g>
<g id="_x32_">
</g>
<g id="_x31_">
	<g>
		<path fill="#FFFFFF" d="M361.926,722.361c0,6.121,1.095,12.038,3.133,17.639h-37.416c-11.205-32.388-48.165-56.314-92.315-57.041
			c13.998-27.53,47.977-46.959,87.68-46.959c32.065,0,60.396,12.675,77.485,32.052C377.374,679.178,361.926,699.338,361.926,722.361
			z"/>
		<path fill="#FFFFFF" d="M349.837,740c-1.925-5.455-2.96-11.218-2.96-17.18c0-22.425,14.595-42.062,36.438-52.898
			c11.412-5.662,24.802-8.922,39.123-8.922C464.17,661,498,688.678,498,722.82c0,5.962-1.035,11.726-2.96,17.18H349.837z"/>
		<path fill="#FFFFFF" d="M327.643,740H184.877c8.606-39.774,37.303-69,71.383-69c0.523,0,1.043,0.012,1.563,0.025
			C291.215,671.903,319.169,700.835,327.643,740z"/>
	</g>
	<g>
		<path fill="#FFFFFF" d="M891.926,310.361c0,6.121,1.095,12.039,3.133,17.639h-37.416c-11.205-32.388-48.165-56.314-92.315-57.041
			c13.998-27.53,47.977-46.959,87.68-46.959c32.065,0,60.396,12.675,77.485,32.052C907.374,267.178,891.926,287.338,891.926,310.361
			z"/>
		<path fill="#FFFFFF" d="M879.837,328c-1.925-5.455-2.959-11.218-2.959-17.18c0-22.425,14.595-42.062,36.438-52.898
			c11.412-5.662,24.802-8.922,39.123-8.922c41.731,0,75.562,27.678,75.562,61.82c0,5.962-1.035,11.726-2.96,17.18H879.837z"/>
		<path fill="#FFFFFF" d="M857.643,328H714.877c8.606-39.774,37.303-69,71.383-69c0.523,0,1.043,0.012,1.563,0.025
			C821.215,259.904,849.169,288.835,857.643,328z"/>
	</g>
	<rect x="358" y="945" fill="#DCD8D7" width="1568" height="724"/>
	<path fill="#978D2B" d="M370.402,1541.181c0,0-38.265-39.46-72.343-3.588c-34.079,35.873-58.131-14.127-69.952-26.904
		c-10.788-11.661-47.83-19.132-66.364,19.132c-18.534,38.265-29.894,26.307-34.677,19.73c-4.783-6.576-17.339,0.598-18.535,21.523
		c-1.195,20.926,0,20.926,0,20.926H371L370.402,1541.181z"/>
	<g>
		<path fill="#EC6D2A" d="M59,1575c-2-3-66-343,29-434s6,444,6,444L59,1575z"/>
		<path fill="#BA5225" d="M85.262,1592c-4.221-30.708-6.767-61.519-8.728-92.354c-1.886-30.838-2.994-61.716-3.387-92.613
			c-0.392-30.896,0.089-61.826,1.597-92.736c0.427-7.729,0.893-15.455,1.412-23.176c0.638-7.726,1.337-15.442,2.067-23.15
			l0.286-2.89l0.354-2.89l0.723-5.775c0.507-3.847,0.981-7.691,1.536-11.527c1.103-7.675,2.643-15.311,4.14-22.889
			c0.026,3.889-0.058,7.755-0.083,11.618l-0.126,5.78c-0.016,0.963-0.056,1.922-0.053,2.887l0.041,2.897
			c0.071,3.862,0.062,7.716,0.085,11.567c0.042,3.854-0.08,7.688,0.055,11.548c0.136,7.708,0.242,15.406,0.287,23.096
			c0.179,7.703,0.324,15.401,0.42,23.095c0.571,30.789,1.06,61.573,1.428,92.381c0.375,30.806,0.514,61.625,0.32,92.471
			C87.405,1530.189,86.907,1561.054,85.262,1592z"/>
	</g>
	<g>
		<path fill="#E5604E" d="M98.104,1565.221c-0.999-2.085-10.878-223.735,57.667-272.918
			c68.545-49.182-36.351,282.434-36.351,282.434L98.104,1565.221z"/>
		<path fill="#C64F3B" d="M113.239,1578.39c0.098-19.878,1.269-39.67,2.813-59.424c1.592-19.749,3.682-39.453,6.227-59.104
			c2.546-19.651,5.649-39.245,9.402-58.733c0.971-4.868,1.965-9.731,2.992-14.586c1.104-4.847,2.246-9.684,3.407-14.512l0.443-1.809
			l0.486-1.802l0.981-3.602c0.669-2.396,1.319-4.795,2.018-7.18c1.394-4.773,3.063-9.481,4.698-14.157
			c-0.335,2.472-0.738,4.918-1.104,7.368l-0.603,3.658c-0.098,0.61-0.209,1.216-0.295,1.829l-0.236,1.843
			c-0.304,2.459-0.658,4.904-0.992,7.352c-0.322,2.451-0.746,4.874-1.009,7.337c-0.611,4.905-1.24,9.803-1.907,14.688
			c-0.583,4.907-1.188,9.808-1.822,14.701c-2.422,19.6-4.896,39.188-7.449,58.78c-2.548,19.592-5.248,39.171-8.161,58.737
			C120.191,1539.341,117.083,1558.891,113.239,1578.39z"/>
	</g>
	<path fill="#5D962C" d="M0.527,1547.191c0,0,33.738-34.793,63.787-3.163c30.048,31.63,51.255-12.456,61.678-23.723
		c9.512-10.281,42.173-16.869,58.515,16.869s26.358,23.195,30.575,17.396s15.288,0.527,16.342,18.978
		c1.054,18.451,0,18.451,0,18.451H0L0.527,1547.191z"/>
	<g>
		<rect y="1638" fill="#4CB720" width="448" height="33"/>
		<rect y="1592" fill="#605654" width="462" height="46"/>
	</g>
	<path fill="#978D2B" d="M2163.402,1541.181c0,0-38.265-39.46-72.344-3.588c-34.079,35.873-58.131-14.127-69.951-26.904
		c-10.789-11.661-47.831-19.132-66.365,19.132c-18.534,38.265-29.894,26.307-34.677,19.73s-17.338,0.598-18.534,21.523
		c-1.195,20.926,0,20.926,0,20.926H2164L2163.402,1541.181z"/>
	<g>
		<g>
			<path fill="#EAC324" d="M2155,1575c2-3,66-343-29-434s-6,444-6,444L2155,1575z"/>
			<path fill="#C6A82C" d="M2128.738,1592c4.221-30.708,6.767-61.519,8.728-92.354c1.886-30.838,2.994-61.716,3.387-92.613
				c0.392-30.896-0.089-61.826-1.598-92.736c-0.427-7.729-0.893-15.455-1.411-23.176c-0.639-7.726-1.338-15.442-2.067-23.15
				l-0.285-2.89l-0.354-2.89l-0.723-5.775c-0.507-3.847-0.981-7.691-1.536-11.527c-1.103-7.675-2.643-15.311-4.14-22.889
				c-0.025,3.889,0.059,7.755,0.083,11.618l0.126,5.78c0.016,0.963,0.056,1.922,0.053,2.887l-0.041,2.897
				c-0.07,3.862-0.062,7.716-0.085,11.567c-0.042,3.854,0.08,7.688-0.056,11.548c-0.136,7.708-0.241,15.406-0.286,23.096
				c-0.179,7.703-0.323,15.401-0.42,23.095c-0.571,30.789-1.06,61.573-1.428,92.381c-0.376,30.806-0.515,61.625-0.32,92.471
				C2126.595,1530.189,2127.093,1561.054,2128.738,1592z"/>
		</g>
		<g>
			<path fill="#E5604E" d="M2107.514,1565.813c0.678-1.415,7.379-151.756-39.114-185.115s24.656,191.568,24.656,191.568
				L2107.514,1565.813z"/>
			<path fill="#C64F3B" d="M2097.248,1574.745c-0.066-13.483-0.86-26.907-1.908-40.306c-1.08-13.396-2.496-26.761-4.223-40.09
				c-1.728-13.329-3.832-26.619-6.378-39.838c-0.658-3.302-1.332-6.601-2.029-9.894c-0.749-3.287-1.523-6.567-2.311-9.843
				l-0.3-1.227l-0.33-1.223l-0.666-2.442c-0.454-1.625-0.895-3.252-1.369-4.87c-0.945-3.237-2.076-6.431-3.187-9.603
				c0.228,1.677,0.501,3.336,0.749,4.998l0.408,2.481c0.066,0.414,0.143,0.824,0.2,1.24l0.16,1.25
				c0.206,1.668,0.446,3.326,0.673,4.986c0.219,1.663,0.506,3.306,0.686,4.977c0.414,3.327,0.841,6.648,1.293,9.963
				c0.396,3.328,0.806,6.652,1.236,9.972c1.643,13.294,3.32,26.58,5.053,39.869c1.729,13.289,3.559,26.569,5.535,39.841
				C2092.533,1548.259,2094.641,1561.52,2097.248,1574.745z"/>
		</g>
		<g>
			<path fill="#E5604E" d="M2156.348,1564.813c-0.678-1.415-7.379-151.756,39.113-185.115
				c46.493-33.359-24.655,191.568-24.655,191.568L2156.348,1564.813z"/>
			<path fill="#C64F3B" d="M2166.613,1573.745c0.066-13.483,0.859-26.907,1.907-40.306c1.08-13.396,2.497-26.761,4.224-40.09
				s3.832-26.619,6.377-39.838c0.658-3.302,1.333-6.601,2.03-9.894c0.749-3.287,1.523-6.567,2.31-9.843l0.301-1.227l0.33-1.223
				l0.666-2.442c0.453-1.625,0.895-3.252,1.368-4.87c0.945-3.237,2.077-6.431,3.187-9.603c-0.227,1.677-0.5,3.336-0.748,4.998
				l-0.409,2.481c-0.065,0.414-0.142,0.824-0.2,1.24l-0.16,1.25c-0.206,1.668-0.446,3.326-0.672,4.986
				c-0.219,1.663-0.507,3.306-0.686,4.977c-0.414,3.327-0.841,6.648-1.293,9.963c-0.396,3.328-0.806,6.652-1.236,9.972
				c-1.643,13.294-3.321,26.58-5.053,39.869c-1.729,13.289-3.56,26.569-5.535,39.841
				C2171.328,1547.259,2169.221,1560.52,2166.613,1573.745z"/>
		</g>
	</g>
	<path fill="#5D962C" d="M2271.473,1547.191c0,0-33.738-34.793-63.787-3.163c-30.047,31.63-51.254-12.456-61.678-23.723
		c-9.512-10.281-42.173-16.869-58.515,16.869s-26.358,23.195-30.575,17.396c-4.218-5.799-15.288,0.527-16.342,18.978
		c-1.055,18.451,0,18.451,0,18.451H2272L2271.473,1547.191z"/>
	<g>
		<rect x="1824" y="1638" fill="#4CB720" width="448" height="33"/>
		<rect x="1810" y="1592" fill="#605654" width="462" height="46"/>
	</g>
	<g>
		<g>
			<g>
				<polygon fill="#72676E" points="597.159,829.986 498.23,545.831 915.329,545.831 1014.258,829.986 				"/>
				<path fill="#565655" d="M913.163,548.877l96.807,278.062H599.325l-96.807-278.062H913.163 M917.495,542.783H493.943
					l101.051,290.251h423.551L917.495,542.783L917.495,542.783z"/>
			</g>
			<g>
				<polygon fill="#889EC5" points="397.347,809.74 493.887,548.877 904.44,548.877 807.901,809.74 				"/>
				<path fill="#565655" d="M895.687,554.972l-92.029,248.673H406.101l92.029-248.673H895.687 M913.195,542.783H489.643
					l-101.05,273.051h423.552L913.195,542.783L913.195,542.783z"/>
			</g>
			<g>
				<polygon fill="#7B93D1" points="485.331,593.309 498.881,556.046 894.138,556.046 880.199,593.309 				"/>
				<path fill="#CECECE" d="M892.587,557.122l-13.134,35.111H486.865l12.77-35.111H892.587 M895.687,554.972H498.129l-14.333,39.411
					h397.148L895.687,554.972L895.687,554.972z"/>
			</g>
			<g>
				<polygon fill="#7B93D1" points="470.417,632.719 484.538,595.458 879.805,595.458 865.866,632.719 				"/>
				<path fill="#CECECE" d="M878.254,596.533l-13.134,35.111H471.974l13.307-35.111H878.254 M881.354,594.383H483.796
					l-14.936,39.411h397.751L881.354,594.383L881.354,594.383z"/>
			</g>
			<g>
				<polygon fill="#7B93D1" points="456.305,672.13 469.856,634.869 865.112,634.869 851.174,672.13 				"/>
				<path fill="#CECECE" d="M863.562,635.944l-13.134,35.111H457.84l12.77-35.111H863.562 M866.662,633.794H469.104l-14.333,39.412
					h397.149L866.662,633.794L866.662,633.794z"/>
			</g>
			<g>
				<polygon fill="#7B93D1" points="441.392,711.541 455.513,674.28 850.779,674.28 836.841,711.541 				"/>
				<path fill="#CECECE" d="M849.229,675.355l-13.134,35.111H442.949l13.306-35.111H849.229 M852.329,673.206H454.771
					l-14.936,39.411h397.751L852.329,673.206L852.329,673.206z"/>
			</g>
			<g>
				<polygon fill="#7B93D1" points="426.743,750.953 440.294,713.691 835.55,713.691 821.611,750.953 				"/>
				<path fill="#CECECE" d="M834,714.767l-13.134,35.111H428.278l12.77-35.111H834 M837.099,712.617H439.542l-14.333,39.411h397.149
					L837.099,712.617L837.099,712.617z"/>
			</g>
			<g>
				<polygon fill="#7B93D1" points="407.645,802.57 425.957,753.103 821.222,753.103 802.91,802.57 				"/>
				<path fill="#CECECE" d="M819.677,754.178l-17.516,47.317H409.189l17.516-47.317H819.677 M822.766,752.028H425.208
					l-19.107,51.617h397.558L822.766,752.028L822.766,752.028z"/>
			</g>
			<g>
				<g>
					<line fill="#998892" x1="555.271" y1="554.972" x2="463.242" y2="803.645"/>
					<polygon fill="#CECECE" points="465.517,803.645 460.967,803.645 552.996,554.972 557.545,554.972 					"/>
				</g>
				<g>
					<line fill="#998892" x1="618.128" y1="554.972" x2="526.1" y2="803.645"/>
					<polygon fill="#CECECE" points="528.374,803.645 523.825,803.645 615.854,554.972 620.403,554.972 					"/>
				</g>
				<g>
					<line fill="#998892" x1="676.716" y1="554.972" x2="584.688" y2="803.645"/>
					<polygon fill="#CECECE" points="586.962,803.645 582.413,803.645 674.442,554.972 678.991,554.972 					"/>
				</g>
				<g>
					<line fill="#998892" x1="734.447" y1="554.972" x2="642.419" y2="803.645"/>
					<polygon fill="#CECECE" points="644.693,803.645 640.144,803.645 732.173,554.972 736.723,554.972 					"/>
				</g>
				<g>
					<line fill="#998892" x1="791.508" y1="554.972" x2="699.48" y2="803.645"/>
					<polygon fill="#CECECE" points="701.754,803.645 697.205,803.645 789.234,554.972 793.784,554.972 					"/>
				</g>
				<g>
					<line fill="#998892" x1="842.837" y1="554.972" x2="750.809" y2="803.645"/>
					<polygon fill="#CECECE" points="753.083,803.645 748.534,803.645 840.563,554.972 845.112,554.972 					"/>
				</g>
			</g>
		</g>
		<polygon opacity="0.5" fill="#A7C3EA" points="397.347,809.74 904.44,548.877 807.901,809.74 		"/>
	</g>
	<g>
		<g>
			<g>
				<polygon fill="#72676E" points="1728.276,829.986 1827.205,545.831 1410.107,545.831 1311.178,829.986 				"/>
				<path fill="#565655" d="M1412.272,548.877h410.646l-96.807,278.062h-410.646L1412.272,548.877 M1407.941,542.783
					l-101.051,290.251h423.552l101.051-290.251H1407.941L1407.941,542.783z"/>
			</g>
			<g>
				<polygon fill="#889EC5" points="1928.089,809.74 1831.55,548.877 1420.996,548.877 1517.535,809.74 				"/>
				<path fill="#565655" d="M1429.749,554.972h397.558l92.029,248.673h-397.559L1429.749,554.972 M1412.241,542.783l101.051,273.051
					h423.552l-101.051-273.051H1412.241L1412.241,542.783z"/>
			</g>
			<g>
				<polygon fill="#7B93D1" points="1840.105,593.309 1826.555,556.046 1431.299,556.046 1445.236,593.309 				"/>
				<path fill="#CECECE" d="M1432.849,557.122h392.952l12.77,35.111h-392.588L1432.849,557.122 M1429.749,554.972l14.742,39.411
					h397.149l-14.334-39.411H1429.749L1429.749,554.972z"/>
			</g>
			<g>
				<polygon fill="#7B93D1" points="1855.02,632.719 1840.898,595.458 1445.632,595.458 1459.569,632.719 				"/>
				<path fill="#CECECE" d="M1447.182,596.533h392.975l13.306,35.111h-393.146L1447.182,596.533 M1444.082,594.383l14.742,39.411
					h397.752l-14.936-39.411H1444.082L1444.082,594.383z"/>
			</g>
			<g>
				<polygon fill="#7B93D1" points="1869.131,672.13 1855.58,634.869 1460.323,634.869 1474.262,672.13 				"/>
				<path fill="#CECECE" d="M1461.874,635.944h392.952l12.77,35.111h-392.588L1461.874,635.944 M1458.774,633.794l14.742,39.412
					h397.148l-14.333-39.412H1458.774L1458.774,633.794z"/>
			</g>
			<g>
				<polygon fill="#7B93D1" points="1884.044,711.541 1869.923,674.28 1474.656,674.28 1488.595,711.541 				"/>
				<path fill="#CECECE" d="M1476.207,675.355h392.974l13.307,35.111h-393.146L1476.207,675.355 M1473.107,673.206l14.742,39.411
					h397.752l-14.937-39.411H1473.107L1473.107,673.206z"/>
			</g>
			<g>
				<polygon fill="#7B93D1" points="1898.693,750.953 1885.143,713.691 1489.886,713.691 1503.824,750.953 				"/>
				<path fill="#CECECE" d="M1491.437,714.767h392.952l12.77,35.111H1504.57L1491.437,714.767 M1488.337,712.617l14.742,39.411
					h397.149l-14.334-39.411H1488.337L1488.337,712.617z"/>
			</g>
			<g>
				<polygon fill="#7B93D1" points="1917.791,802.57 1899.479,753.103 1504.214,753.103 1522.525,802.57 				"/>
				<path fill="#CECECE" d="M1505.759,754.178h392.973l17.516,47.317h-392.973L1505.759,754.178 M1502.67,752.028l19.107,51.617
					h397.559l-19.107-51.617H1502.67L1502.67,752.028z"/>
			</g>
			<g>
				<g>
					<line fill="#998892" x1="1770.165" y1="554.972" x2="1862.194" y2="803.645"/>
					<polygon fill="#CECECE" points="1859.92,803.645 1864.47,803.645 1772.44,554.972 1767.891,554.972 					"/>
				</g>
				<g>
					<line fill="#998892" x1="1707.308" y1="554.972" x2="1799.336" y2="803.645"/>
					<polygon fill="#CECECE" points="1797.062,803.645 1801.611,803.645 1709.582,554.972 1705.032,554.972 					"/>
				</g>
				<g>
					<line fill="#998892" x1="1648.72" y1="554.972" x2="1740.748" y2="803.645"/>
					<polygon fill="#CECECE" points="1738.475,803.645 1743.023,803.645 1650.994,554.972 1646.444,554.972 					"/>
				</g>
				<g>
					<line fill="#998892" x1="1590.988" y1="554.972" x2="1683.018" y2="803.645"/>
					<polygon fill="#CECECE" points="1680.742,803.645 1685.292,803.645 1593.263,554.972 1588.713,554.972 					"/>
				</g>
				<g>
					<line fill="#998892" x1="1533.928" y1="554.972" x2="1625.956" y2="803.645"/>
					<polygon fill="#CECECE" points="1623.682,803.645 1628.231,803.645 1536.202,554.972 1531.652,554.972 					"/>
				</g>
				<g>
					<line fill="#998892" x1="1482.599" y1="554.972" x2="1574.627" y2="803.645"/>
					<polygon fill="#CECECE" points="1572.353,803.645 1576.902,803.645 1484.873,554.972 1480.323,554.972 					"/>
				</g>
			</g>
		</g>
		<polygon opacity="0.5" fill="#A7C3EA" points="1925.694,809.74 1418.602,548.877 1515.141,809.74 		"/>
	</g>
	<g>
		<path fill="#B0C5D6" d="M1513.047,1671.24h-163.4v-530.803c0-12.012,9.737-21.75,21.75-21.75h119.9
			c12.013,0,21.75,9.738,21.75,21.75V1671.24z"/>
		<path fill="#C4D9EE" d="M1495.847,1671.24h-129v-506.668c0-9.28,7.522-16.803,16.803-16.803h95.395
			c9.28,0,16.803,7.522,16.803,16.803V1671.24z"/>
		<circle fill="#E9E6ED" cx="1431.347" cy="1314.339" r="45.15"/>
		<path fill="#B0C5D6" d="M1431.347,1292.839c-11.874,0-21.5,9.626-21.5,21.5v39.711c6.393,3.468,13.716,5.438,21.5,5.438
			s15.107-1.971,21.5-5.438v-39.711C1452.847,1302.465,1443.221,1292.839,1431.347,1292.839z"/>
		<path fill="#E9E6ED" d="M1468.247,1258.438h-73.801c-4.556,0-8.25-3.693-8.25-8.25v-73.801c0-4.556,3.694-8.25,8.25-8.25h73.801
			c4.556,0,8.25,3.694,8.25,8.25v73.801C1476.497,1254.745,1472.803,1258.438,1468.247,1258.438z"/>
		<rect x="1403.396" y="1181.038" fill="#A2A590" width="55.9" height="30.101"/>
		<g>
			<circle fill="#B10D0B" cx="1418.447" cy="1224.038" r="4.3"/>
			<circle fill="#4CB720" cx="1444.247" cy="1224.038" r="4.3"/>
		</g>
		<rect x="1349.646" y="1552.989" fill="#4CB720" width="163.4" height="77.4"/>
		<g>
			<g>
				<path fill="#E9E6ED" d="M1441.264,1590.691h-2.159c-0.519,0-0.938-0.421-0.938-0.939v-20.378c0-0.518,0.42-0.938,0.938-0.938
					h2.159c0.519,0,0.938,0.421,0.938,0.938v20.378C1442.202,1590.271,1441.782,1590.691,1441.264,1590.691z"/>
				<path fill="#E9E6ED" d="M1425.738,1590.691h-2.158c-0.519,0-0.939-0.421-0.939-0.939v-20.378c0-0.518,0.421-0.938,0.939-0.938
					h2.158c0.519,0,0.939,0.421,0.939,0.938v20.378C1426.678,1590.271,1426.257,1590.691,1425.738,1590.691z"/>
				<path fill="#E9E6ED" d="M1441.672,1613.929h-18.5c-3.797,0-6.875-3.078-6.875-6.875v-25.904h32.25v25.904
					C1448.547,1610.851,1445.469,1613.929,1441.672,1613.929z"/>
			</g>
			<g>
				<path fill="#FFBC00" d="M1435.611,1586.965c-0.733,1.404-1.579,2.707-2.449,3.987c-0.439,0.638-0.889,1.265-1.347,1.885
					c-0.462,0.616-0.927,1.229-1.406,1.83l-1.167-2.128c0.507-0.124,1.017-0.229,1.525-0.339c0.509-0.114,1.021-0.208,1.531-0.31
					c0.51-0.104,1.023-0.19,1.535-0.281c0.512-0.094,1.025-0.177,1.539-0.256l3.128-0.477l-1.659,2.664
					c-0.301,0.483-0.608,0.963-0.925,1.437c-0.31,0.479-0.63,0.95-0.954,1.419c-0.644,0.942-1.316,1.865-2.004,2.779
					c-0.693,0.912-1.41,1.808-2.157,2.686c-0.751,0.875-1.522,1.738-2.374,2.551c0.345-1.126,0.771-2.202,1.217-3.266
					c0.451-1.061,0.932-2.103,1.436-3.13c0.51-1.024,1.034-2.04,1.589-3.036c0.274-0.5,0.553-0.998,0.841-1.489
					c0.282-0.495,0.573-0.985,0.871-1.471l1.469,2.188c-0.513,0.092-1.025,0.181-1.54,0.257c-0.514,0.08-1.026,0.165-1.543,0.232
					c-0.516,0.069-1.03,0.146-1.548,0.203c-0.518,0.061-1.034,0.127-1.554,0.175l-3.664,0.335l2.497-2.463
					c0.547-0.54,1.108-1.066,1.673-1.591c0.568-0.521,1.145-1.034,1.732-1.536
					C1433.085,1588.819,1434.292,1587.842,1435.611,1586.965z"/>
			</g>
		</g>
		<g>
			<g>
				<path fill="#2A3235" d="M1250.746,1630.035c-117.427,0-129.036-64.841-138.364-116.94c-7.278-40.657-13.129-63.66-48.687-63.66
					h-62.35v-12.19h62.35c47.491,0,54.2,37.468,60.686,73.703c8.971,50.104,19.138,106.897,126.365,106.897
					c58.687,0,103.651-16.346,133.645-48.587c45.388-48.785,40.928-118.326,40.878-119.023l-0.017-0.445v-66.65h12.189v66.438
					c0.366,5.465,4.057,76.099-44.037,127.888C1361.01,1612.348,1313.012,1630.035,1250.746,1630.035z"/>
			</g>
		</g>
		<path fill="#515E66" d="M1435.947,1393.889h-9.2c-2.21,0-4-1.791-4-4v-78c0-2.209,1.79-4,4-4h9.2c2.209,0,4,1.791,4,4v78
			C1439.947,1392.098,1438.156,1393.889,1435.947,1393.889z"/>
	</g>
	<path fill="#515E66" d="M1014.695,1456.239h-26.7c-3.314,0-6-2.687-6-6v-15.95c0-3.313,2.686-6,6-6h26.7c3.313,0,6,2.687,6,6v15.95
		C1020.695,1453.553,1018.009,1456.239,1014.695,1456.239z"/>
	<g>
		<path fill="#B0C5D6" d="M1753.848,1671.24h-163.4v-530.803c0-12.012,9.738-21.75,21.75-21.75h119.9
			c12.013,0,21.75,9.738,21.75,21.75V1671.24z"/>
		<path fill="#C4D9EE" d="M1736.647,1671.24h-129v-506.668c0-9.28,7.522-16.803,16.803-16.803h95.396
			c9.279,0,16.802,7.522,16.802,16.803V1671.24z"/>
		<path fill="#E9E6ED" d="M1709.048,1258.438h-73.801c-4.556,0-8.25-3.693-8.25-8.25v-73.801c0-4.556,3.694-8.25,8.25-8.25h73.801
			c4.557,0,8.25,3.694,8.25,8.25v73.801C1717.298,1254.745,1713.604,1258.438,1709.048,1258.438z"/>
		<rect x="1644.197" y="1181.038" fill="#A2A590" width="55.9" height="30.101"/>
		<g>
			<circle fill="#B10D0B" cx="1659.248" cy="1224.038" r="4.3"/>
			<circle fill="#4CB720" cx="1685.048" cy="1224.038" r="4.3"/>
		</g>
		<rect x="1590.447" y="1552.989" fill="#4CB720" width="163.4" height="77.4"/>
		<g>
			<g>
				<path fill="#E9E6ED" d="M1682.064,1590.691h-2.159c-0.519,0-0.938-0.421-0.938-0.939v-20.378c0-0.518,0.42-0.938,0.938-0.938
					h2.159c0.519,0,0.939,0.421,0.939,0.938v20.378C1683.004,1590.271,1682.583,1590.691,1682.064,1590.691z"/>
				<path fill="#E9E6ED" d="M1666.54,1590.691h-2.159c-0.519,0-0.939-0.421-0.939-0.939v-20.378c0-0.518,0.421-0.938,0.939-0.938
					h2.159c0.519,0,0.938,0.421,0.938,0.938v20.378C1667.479,1590.271,1667.059,1590.691,1666.54,1590.691z"/>
				<path fill="#E9E6ED" d="M1682.473,1613.929h-18.5c-3.797,0-6.875-3.078-6.875-6.875v-25.904h32.25v25.904
					C1689.348,1610.851,1686.27,1613.929,1682.473,1613.929z"/>
			</g>
			<g>
				<path fill="#FFBC00" d="M1676.412,1586.965c-0.732,1.404-1.578,2.707-2.449,3.987c-0.438,0.638-0.889,1.265-1.347,1.885
					c-0.462,0.616-0.927,1.229-1.406,1.83l-1.167-2.128c0.507-0.124,1.018-0.229,1.526-0.339c0.508-0.114,1.02-0.208,1.53-0.31
					c0.51-0.104,1.023-0.19,1.535-0.281c0.512-0.094,1.025-0.177,1.54-0.256l3.128-0.477l-1.66,2.664
					c-0.301,0.483-0.608,0.963-0.925,1.437c-0.31,0.479-0.63,0.95-0.954,1.419c-0.644,0.942-1.316,1.865-2.004,2.779
					c-0.693,0.912-1.41,1.808-2.157,2.686c-0.751,0.875-1.522,1.738-2.374,2.551c0.346-1.126,0.771-2.202,1.217-3.266
					c0.451-1.061,0.932-2.103,1.436-3.13c0.51-1.024,1.034-2.04,1.589-3.036c0.274-0.5,0.553-0.998,0.841-1.489
					c0.283-0.495,0.573-0.985,0.871-1.471l1.469,2.188c-0.512,0.092-1.025,0.181-1.539,0.257c-0.515,0.08-1.027,0.165-1.544,0.232
					c-0.516,0.069-1.03,0.146-1.548,0.203c-0.518,0.061-1.034,0.127-1.554,0.175l-3.663,0.335l2.496-2.463
					c0.547-0.54,1.108-1.066,1.673-1.591c0.569-0.521,1.146-1.034,1.732-1.536
					C1673.886,1588.819,1675.093,1587.842,1676.412,1586.965z"/>
			</g>
		</g>
		<g>
			<path fill="#2A3235" d="M1649.113,1459.741c-13.961,0-31.161-10.378-52.227-31.441c-27.543-27.545-33.833-65.059-17.255-102.924
				c18.208-41.583,59.848-74.419,92.759-73.026c56.123,2.244,55.613,68.639,55.34,104.307c-0.021,2.505-0.037,4.893-0.037,7.133
				c0,21.849-20.543,40.136-40.9,48.568c-2.855,1.184-5.711,2.189-8.55,3.019l-0.013,9.006c-0.071,1.096-1.94,26.913-20.066,33.745
				C1655.311,1459.201,1652.296,1459.741,1649.113,1459.741z M1670.393,1264.498c-27.692,0-63.793,29.678-79.595,65.769
				c-8.495,19.404-17.882,56.821,14.71,89.412c28.605,28.607,42.578,29.22,48.356,27.043c10.173-3.836,12.026-21.177,12.188-22.977
				v-5.859c-17.026,2.016-32.664-2.539-43.365-13.236c-21.255-21.257-20.558-62.104-9.106-89.748
				c7.411-17.896,18.571-28.158,30.616-28.158v12.19c-6.668,0-14.084,7.905-19.356,20.633
				c-10.078,24.331-10.414,59.583,6.468,76.462c9.334,9.337,22.413,11.296,34.744,9.521v-28.861h12.19v25.883
				c1.326-0.46,2.626-0.954,3.886-1.475c19.65-8.14,33.374-23.481,33.374-37.308c0-2.27,0.019-4.687,0.037-7.225
				c0.354-45.674-2.727-90.399-43.636-92.037C1671.404,1264.509,1670.898,1264.498,1670.393,1264.498z"/>
		</g>
		<circle fill="#E9E6ED" cx="1672.147" cy="1314.339" r="45.15"/>
		<path fill="#B0C5D6" d="M1672.147,1292.839c-11.874,0-21.5,9.626-21.5,21.5v39.711c6.393,3.468,13.716,5.438,21.5,5.438
			s15.107-1.971,21.5-5.438v-39.711C1693.647,1302.465,1684.021,1292.839,1672.147,1292.839z"/>
		<path fill="#515E66" d="M1676.748,1393.889h-9.2c-2.209,0-4-1.791-4-4v-78c0-2.209,1.791-4,4-4h9.2c2.209,0,4,1.791,4,4v78
			C1680.748,1392.098,1678.957,1393.889,1676.748,1393.889z"/>
	</g>
	<rect x="104.792" y="877.887" fill="#B2AAB5" width="2025.308" height="66.65"/>
	<rect x="104.792" y="815.537" fill="#B2AAB5" width="2025.308" height="34.4"/>
	<rect x="124.142" y="849.937" fill="#3E9117" width="1973.708" height="27.95"/>
	<g>
		<g>
			<rect x="244.542" y="966.037" fill="#B2AAB5" width="113.951" height="705.203"/>
			<rect x="358.493" y="966.037" fill="#EAEAEA" width="62.35" height="705.203"/>
		</g>
		<polygon fill="#A99EA4" points="276.792,1045.588 420.843,1045.588 519.743,966.037 276.792,966.037 		"/>
		<polygon fill="#605654" points="358.493,1045.588 244.542,1045.588 162.842,966.037 306.893,966.037 		"/>
		<rect x="162.842" y="944.537" fill="#3E9117" width="356.901" height="21.5"/>
	</g>
	<g>
		<g>
			<rect x="1818.349" y="963.888" fill="#B2AAB5" width="113.95" height="705.202"/>
			<rect x="1932.299" y="963.888" fill="#EAEAEA" width="62.35" height="705.202"/>
		</g>
		<polygon fill="#A99EA4" points="1850.599,1043.438 1994.648,1043.438 2093.549,963.888 1850.599,963.888 		"/>
		<polygon fill="#605654" points="1932.299,1043.438 1818.349,1043.438 1736.647,963.888 1880.698,963.888 		"/>
		<rect x="1736.647" y="942.387" fill="#3E9117" width="356.901" height="21.501"/>
	</g>
	<g>
		<path fill="#212121" d="M1006.545,1671.24h-38.35c-6.627,0-12-5.373-12-12V1524.14c0-6.628,5.373-12,12-12h38.35
			c6.627,0,12,5.372,12,12v135.101C1018.545,1665.867,1013.172,1671.24,1006.545,1671.24z"/>
		<path fill="#D69900" d="M562.743,1408.939h-39.6c-6.627,0-12-5.373-12-12v-27.601c0-6.628,5.373-12,12-12h39.6V1408.939z"/>
		<path fill="#D69900" d="M943.295,1408.939h39.6c6.627,0,12-5.373,12-12v-27.601c0-6.628-5.373-12-12-12h-39.6V1408.939z"/>
		<path fill="#212121" d="M548.593,1671.24h-38.35c-6.627,0-12-5.373-12-12V1524.14c0-6.628,5.373-12,12-12h38.35
			c6.627,0,12,5.372,12,12v135.101C560.593,1665.867,555.221,1671.24,548.593,1671.24z"/>
		<path fill="#FFBC00" d="M985.399,1420.334l-18.454-22.145l-37.303-111.907c-17.526-52.579-66.731-88.044-122.155-88.044h-49.094
			H709.3c-55.423,0-104.628,35.465-122.155,88.044l-37.302,111.907l-18.455,22.145c-19.033,22.84-29.541,51.687-28.846,81.056v92.45
			h255.851h255.851v-92.45C1014.94,1472.021,1004.433,1443.174,985.399,1420.334z"/>
		<path fill="#E8F7FE" d="M570.4,1497.09h-49.382c-5.454,0-9.875-4.422-9.875-9.875v-37.951c0-12.771,10.354-23.125,23.125-23.125
			h37.951c5.454,0,9.875,4.422,9.875,9.875v49.382C582.094,1491.854,576.858,1497.09,570.4,1497.09z"/>
		<path fill="#E8F7FE" d="M946.389,1497.09h49.381c5.454,0,9.875-4.422,9.875-9.875v-37.951c0-12.771-10.354-23.125-23.125-23.125
			h-37.95c-5.454,0-9.875,4.422-9.875,9.875v49.382C934.695,1491.854,939.93,1497.09,946.389,1497.09z"/>
		<path fill="#A7C3EA" d="M936.863,1350.808l-22.166-60.322c-15.997-43.533-60.908-72.897-111.494-72.897h-44.809h-44.809
			c-50.586,0-95.497,29.364-111.494,72.897l-22.166,60.322c-5.845,15.905,7.206,32.331,25.689,32.331h152.78h152.78
			C929.657,1383.139,942.708,1366.713,936.863,1350.808z"/>
		<path fill="#D69900" d="M1012.695,1619.64H504.093c-4.418,0-8-3.581-8-8v-18.399c0-4.419,3.582-8,8-8h508.602c4.418,0,8,3.581,8,8
			v18.399C1020.695,1616.059,1017.113,1619.64,1012.695,1619.64z"/>
		<path fill="#D69900" d="M885.245,1585.24H629.394v-72.951c0-22.644,18.356-41,41-41h173.851c22.644,0,41,18.356,41,41V1585.24z"/>
		<path fill="#FF7F00" d="M1000.92,1512.14h-18.5c-0.828,0-1.5-0.672-1.5-1.5v-7.75c0-0.829,0.672-1.5,1.5-1.5h18.5
			c0.829,0,1.5,0.671,1.5,1.5v7.75C1002.42,1511.468,1001.749,1512.14,1000.92,1512.14z"/>
		<path fill="#FF7F00" d="M531.144,1512.14h-18.5c-0.828,0-1.5-0.672-1.5-1.5v-7.75c0-0.829,0.672-1.5,1.5-1.5h18.5
			c0.828,0,1.5,0.671,1.5,1.5v7.75C532.644,1511.468,531.972,1512.14,531.144,1512.14z"/>
		<path opacity="0.5" fill="#D0DEEF" d="M823.196,1383.139h87.978c18.482,0,31.534-16.426,25.689-32.331l-22.166-60.322
			c-15.997-43.533-60.908-72.897-111.494-72.897h-44.809h-15.559L823.196,1383.139z"/>
	</g>
	<rect y="1693" fill="#2A3235" width="2272" height="180"/>
	<path fill="#4CB720" d="M633.436,814.638h972.319v-149.19c0-6.661-5.399-12.06-12.06-12.06H645.496
		c-6.661,0-12.06,5.399-12.06,12.06V814.638z"/>
	<g>
		<text transform="matrix(1 0 0 1 717.5444 758.8809)" fill="#EAEAEA" font-family="'Arimo-Bold'" font-size="79.9585">CHARGING STATION</text>
	</g>
	<g>
		<path fill="#605654" d="M801.5,1069.5h-155c-13.255,0-24-10.745-24-24l0,0c0-13.255,10.745-24,24-24h155c13.255,0,24,10.745,24,24
			l0,0C825.5,1058.755,814.755,1069.5,801.5,1069.5z"/>
		<path fill="#605654" d="M1575.5,1069.5h-155c-13.255,0-24-10.745-24-24l0,0c0-13.255,10.745-24,24-24h155
			c13.255,0,24,10.745,24,24l0,0C1599.5,1058.755,1588.755,1069.5,1575.5,1069.5z"/>
	</g>
	<rect y="1671" fill="#151819" width="2272" height="22"/>
	<g>
		<path fill="#FFFFFF" d="M1904.951,458.361c0,6.121-1.095,12.039-3.132,17.639h37.415c11.205-32.388,48.165-56.314,92.315-57.041
			c-13.997-27.53-47.977-46.959-87.68-46.959c-32.065,0-60.396,12.675-77.485,32.052
			C1889.504,415.178,1904.951,435.338,1904.951,458.361z"/>
		<path fill="#FFFFFF" d="M1901.819,476c2.037-5.6,3.132-11.518,3.132-17.639c0-23.023-15.447-43.184-38.566-54.309
			c-12.079-5.813-26.251-9.16-41.409-9.16c-44.169,0-79.976,28.417-79.976,63.469c0,6.121,1.095,12.039,3.133,17.639H1901.819z"/>
		<path fill="#FFFFFF" d="M1939.234,476H2128c-11.379-32.893-49.321-57.062-94.383-57.062c-0.691,0-1.38,0.009-2.067,0.021
			C1987.399,419.686,1950.439,443.612,1939.234,476z"/>
	</g>
</g>
</svg>
